<svg width="39" height="39" viewBox="0 0 39 39" fill="none" xmlns="http://www.w3.org/2000/svg">
<path fill-rule="evenodd" clip-rule="evenodd" d="M7.98379 16C9.56678 16.0032 11.1151 15.5367 12.4328 14.6596C13.7506 13.7825 14.7784 12.5342 15.3864 11.0727C15.9944 9.61116 16.1551 8.00209 15.8482 6.44922C15.5415 4.89635 14.7808 3.46931 13.6626 2.34882C12.5444 1.2285 11.119 0.464934 9.56677 0.154974C8.01438 -0.155147 6.40516 0.00242353 4.94233 0.607443C3.47966 1.21246 2.22915 2.23773 1.34947 3.55368C0.469637 4.86963 0 6.41699 0 7.99999C0 10.1189 0.840648 12.1512 2.33749 13.6512C3.83432 15.1509 5.86493 15.9956 7.98379 16ZM35.4328 14.6596C34.1151 15.5367 33 15.7756 30.9838 16C22 17 17 22 16 31C15.7778 33 15.5304 34.1304 14.6505 35.4463C13.7709 36.7623 12.5203 37.7875 11.0577 38.3926C9.59484 38.9976 7.98562 39.1551 6.43323 38.845C4.88101 38.5351 3.45558 37.7715 2.33737 36.6512C1.21915 35.5307 0.458515 34.1036 0.151796 32.5508C-0.155086 30.9979 0.0055532 29.3888 0.613649 27.9273C1.22158 26.4658 2.24943 25.2175 3.56716 24.3404C4.88489 23.4633 6 23.2244 8.01621 23C17 22 22 17 23 7.99999C23.2222 6 23.4696 4.86963 24.3495 3.55368C25.2291 2.23773 26.4797 1.21246 27.9423 0.607443C29.4052 0.00242353 31.0144 -0.155147 32.5668 0.154974C34.119 0.464934 35.5444 1.2285 36.6626 2.34882C37.7808 3.46931 38.5415 4.89635 38.8482 6.44922C39.1551 8.00209 38.9944 9.61116 38.3864 11.0727C37.7784 12.5342 36.7506 13.7825 35.4328 14.6596ZM26.5672 24.3404C27.8849 23.4633 29.4332 22.9968 31.0162 23C33.1351 23.0044 35.1657 23.8491 36.6625 25.3488C38.1594 26.8488 39 28.8811 39 31C39 32.583 38.5304 34.1304 37.6505 35.4463C36.7709 36.7623 35.5203 37.7875 34.0577 38.3926C32.5948 38.9976 30.9856 39.1551 29.4332 38.845C27.881 38.5351 26.4556 37.7715 25.3374 36.6512C24.2192 35.5307 23.4585 34.1037 23.1518 32.5508C22.8449 30.9979 23.0056 29.3888 23.6136 27.9273C24.2216 26.4658 25.2494 25.2175 26.5672 24.3404Z" fill="#7EDFAB"/>
</svg>
