<svg width="375" height="281" viewBox="0 0 375 281" fill="none" xmlns="http://www.w3.org/2000/svg">
<g clip-path="url(#clip0_1162_1049)">
<rect width="375" height="281" fill="white"/>
<path d="M0 -11C0 -16.5228 4.47715 -21 10 -21H365C370.523 -21 375 -16.5228 375 -11V704H0V-11Z" fill="#1C1C1C"/>
<path d="M20.2784 56V44.3636H27.5739V45.875H22.0341V49.4205H27.1932V50.9261H22.0341V54.4886H27.642V56H20.2784ZM31.1236 47.2727L33.0497 50.6705L34.9929 47.2727H36.8509L34.1293 51.6364L36.8736 56H35.0156L33.0497 52.7386L31.0895 56H29.2259L31.9418 51.6364L29.2599 47.2727H31.1236ZM42.0128 56.1761C41.1529 56.1761 40.4124 55.9924 39.7912 55.625C39.1738 55.2538 38.6965 54.733 38.3594 54.0625C38.026 53.3883 37.8594 52.5985 37.8594 51.6932C37.8594 50.7992 38.026 50.0114 38.3594 49.3295C38.6965 48.6477 39.1662 48.1155 39.7685 47.733C40.3745 47.3504 41.0829 47.1591 41.8935 47.1591C42.3859 47.1591 42.8632 47.2405 43.3253 47.4034C43.7874 47.5663 44.2022 47.822 44.5696 48.1705C44.937 48.5189 45.2268 48.9716 45.4389 49.5284C45.651 50.0814 45.7571 50.7538 45.7571 51.5455V52.1477H38.8196V50.875H44.0923C44.0923 50.428 44.0014 50.0322 43.8196 49.6875C43.6378 49.339 43.3821 49.0644 43.0526 48.8636C42.7268 48.6629 42.3442 48.5625 41.9048 48.5625C41.4276 48.5625 41.0109 48.6799 40.6548 48.9148C40.3026 49.1458 40.0298 49.4489 39.8366 49.8239C39.6473 50.1951 39.5526 50.5985 39.5526 51.0341V52.0284C39.5526 52.6117 39.6548 53.108 39.8594 53.517C40.0677 53.9261 40.3575 54.2386 40.7287 54.4545C41.0999 54.6667 41.5336 54.7727 42.0298 54.7727C42.3518 54.7727 42.6454 54.7273 42.9105 54.6364C43.1757 54.5417 43.4048 54.4015 43.598 54.2159C43.7912 54.0303 43.9389 53.8011 44.0412 53.5284L45.6491 53.8182C45.5204 54.2917 45.2893 54.7064 44.956 55.0625C44.6264 55.4148 44.2116 55.6894 43.7116 55.8864C43.2154 56.0795 42.6491 56.1761 42.0128 56.1761ZM47.642 56V47.2727H49.2841V48.6591H49.375C49.5341 48.1894 49.8144 47.8201 50.2159 47.5511C50.6212 47.2784 51.0795 47.142 51.5909 47.142C51.697 47.142 51.822 47.1458 51.9659 47.1534C52.1136 47.161 52.2292 47.1705 52.3125 47.1818V48.8068C52.2443 48.7879 52.1231 48.767 51.9489 48.7443C51.7746 48.7178 51.6004 48.7045 51.4261 48.7045C51.0246 48.7045 50.6667 48.7898 50.3523 48.9602C50.0417 49.1269 49.7955 49.3598 49.6136 49.6591C49.4318 49.9545 49.3409 50.2917 49.3409 50.6705V56H47.642ZM57.1463 56.1761C56.3016 56.1761 55.5743 55.9848 54.9645 55.6023C54.3584 55.2159 53.8925 54.6837 53.5668 54.0057C53.241 53.3277 53.0781 52.5511 53.0781 51.6761C53.0781 50.7898 53.2448 50.0076 53.5781 49.3295C53.9115 48.6477 54.3812 48.1155 54.9872 47.733C55.5933 47.3504 56.3073 47.1591 57.1293 47.1591C57.7921 47.1591 58.383 47.2822 58.902 47.5284C59.4209 47.7708 59.8395 48.1117 60.1577 48.5511C60.4796 48.9905 60.6709 49.5038 60.7315 50.0909H59.0781C58.9872 49.6818 58.7789 49.3295 58.4531 49.0341C58.1312 48.7386 57.6993 48.5909 57.1577 48.5909C56.6842 48.5909 56.2694 48.7159 55.9134 48.9659C55.5611 49.2121 55.2865 49.5644 55.0895 50.0227C54.8925 50.4773 54.794 51.0152 54.794 51.6364C54.794 52.2727 54.8906 52.822 55.0838 53.2841C55.277 53.7462 55.5497 54.1042 55.902 54.358C56.258 54.6117 56.6766 54.7386 57.1577 54.7386C57.4796 54.7386 57.7713 54.6799 58.0327 54.5625C58.2978 54.4413 58.5194 54.2689 58.6974 54.0455C58.8793 53.822 59.0062 53.553 59.0781 53.2386H60.7315C60.6709 53.803 60.4872 54.3068 60.1804 54.75C59.8736 55.1932 59.4626 55.5417 58.9474 55.7955C58.4361 56.0492 57.8357 56.1761 57.1463 56.1761ZM62.5483 56V47.2727H64.2472V56H62.5483ZM63.4062 45.9261C63.1108 45.9261 62.857 45.8277 62.6449 45.6307C62.4366 45.4299 62.3324 45.1913 62.3324 44.9148C62.3324 44.6345 62.4366 44.3958 62.6449 44.1989C62.857 43.9981 63.1108 43.8977 63.4062 43.8977C63.7017 43.8977 63.9536 43.9981 64.1619 44.1989C64.3741 44.3958 64.4801 44.6345 64.4801 44.9148C64.4801 45.1913 64.3741 45.4299 64.1619 45.6307C63.9536 45.8277 63.7017 45.9261 63.4062 45.9261ZM73.0724 49.4034L71.5327 49.6761C71.4683 49.4792 71.366 49.2917 71.2259 49.1136C71.0895 48.9356 70.9039 48.7898 70.669 48.6761C70.4342 48.5625 70.1406 48.5057 69.7884 48.5057C69.3073 48.5057 68.9058 48.6136 68.5838 48.8295C68.2618 49.0417 68.1009 49.3163 68.1009 49.6534C68.1009 49.9451 68.2088 50.1799 68.4247 50.358C68.6406 50.536 68.9891 50.6818 69.4702 50.7955L70.8565 51.1136C71.6596 51.2992 72.258 51.5852 72.652 51.9716C73.0459 52.358 73.2429 52.8598 73.2429 53.4773C73.2429 54 73.0914 54.4659 72.7884 54.875C72.4891 55.2803 72.0705 55.5985 71.5327 55.8295C70.9986 56.0606 70.3793 56.1761 69.6747 56.1761C68.6974 56.1761 67.9001 55.9678 67.2827 55.5511C66.6652 55.1307 66.2865 54.5341 66.1463 53.7614L67.7884 53.5114C67.8906 53.9394 68.1009 54.2633 68.419 54.483C68.7372 54.6989 69.152 54.8068 69.6634 54.8068C70.2202 54.8068 70.6652 54.6913 70.9986 54.4602C71.3319 54.2254 71.4986 53.9394 71.4986 53.6023C71.4986 53.3295 71.3963 53.1004 71.1918 52.9148C70.991 52.7292 70.6823 52.589 70.2656 52.4943L68.7884 52.1705C67.974 51.9848 67.3717 51.6894 66.9815 51.2841C66.5952 50.8788 66.402 50.3655 66.402 49.7443C66.402 49.2292 66.5459 48.7784 66.8338 48.392C67.1217 48.0057 67.5194 47.7045 68.027 47.4886C68.5346 47.2689 69.116 47.1591 69.7713 47.1591C70.7145 47.1591 71.4569 47.3636 71.9986 47.7727C72.5402 48.178 72.8982 48.7216 73.0724 49.4034ZM78.8722 56.1761C78.0123 56.1761 77.2718 55.9924 76.6506 55.625C76.0331 55.2538 75.5559 54.733 75.2188 54.0625C74.8854 53.3883 74.7188 52.5985 74.7188 51.6932C74.7188 50.7992 74.8854 50.0114 75.2188 49.3295C75.5559 48.6477 76.0256 48.1155 76.6278 47.733C77.2339 47.3504 77.9422 47.1591 78.7528 47.1591C79.2453 47.1591 79.7225 47.2405 80.1847 47.4034C80.6468 47.5663 81.0616 47.822 81.429 48.1705C81.7964 48.5189 82.0862 48.9716 82.2983 49.5284C82.5104 50.0814 82.6165 50.7538 82.6165 51.5455V52.1477H75.679V50.875H80.9517C80.9517 50.428 80.8608 50.0322 80.679 49.6875C80.4972 49.339 80.2415 49.0644 79.9119 48.8636C79.5862 48.6629 79.2036 48.5625 78.7642 48.5625C78.2869 48.5625 77.8703 48.6799 77.5142 48.9148C77.1619 49.1458 76.8892 49.4489 76.696 49.8239C76.5066 50.1951 76.4119 50.5985 76.4119 51.0341V52.0284C76.4119 52.6117 76.5142 53.108 76.7188 53.517C76.9271 53.9261 77.2169 54.2386 77.5881 54.4545C77.9593 54.6667 78.393 54.7727 78.8892 54.7727C79.2112 54.7727 79.5047 54.7273 79.7699 54.6364C80.035 54.5417 80.2642 54.4015 80.4574 54.2159C80.6506 54.0303 80.7983 53.8011 80.9006 53.5284L82.5085 53.8182C82.3797 54.2917 82.1487 54.7064 81.8153 55.0625C81.4858 55.4148 81.071 55.6894 80.571 55.8864C80.0748 56.0795 79.5085 56.1761 78.8722 56.1761ZM91.0412 49.4034L89.5014 49.6761C89.437 49.4792 89.3348 49.2917 89.1946 49.1136C89.0582 48.9356 88.8726 48.7898 88.6378 48.6761C88.4029 48.5625 88.1094 48.5057 87.7571 48.5057C87.276 48.5057 86.8745 48.6136 86.5526 48.8295C86.2306 49.0417 86.0696 49.3163 86.0696 49.6534C86.0696 49.9451 86.1776 50.1799 86.3935 50.358C86.6094 50.536 86.9579 50.6818 87.4389 50.7955L88.8253 51.1136C89.6283 51.2992 90.2268 51.5852 90.6207 51.9716C91.0147 52.358 91.2116 52.8598 91.2116 53.4773C91.2116 54 91.0601 54.4659 90.7571 54.875C90.4579 55.2803 90.0393 55.5985 89.5014 55.8295C88.9673 56.0606 88.348 56.1761 87.6435 56.1761C86.6662 56.1761 85.8688 55.9678 85.2514 55.5511C84.634 55.1307 84.2552 54.5341 84.1151 53.7614L85.7571 53.5114C85.8594 53.9394 86.0696 54.2633 86.3878 54.483C86.706 54.6989 87.1207 54.8068 87.6321 54.8068C88.1889 54.8068 88.634 54.6913 88.9673 54.4602C89.3007 54.2254 89.4673 53.9394 89.4673 53.6023C89.4673 53.3295 89.3651 53.1004 89.1605 52.9148C88.9598 52.7292 88.651 52.589 88.2344 52.4943L86.7571 52.1705C85.9427 51.9848 85.3404 51.6894 84.9503 51.2841C84.5639 50.8788 84.3707 50.3655 84.3707 49.7443C84.3707 49.2292 84.5147 48.7784 84.8026 48.392C85.0904 48.0057 85.4882 47.7045 85.9957 47.4886C86.5033 47.2689 87.0848 47.1591 87.7401 47.1591C88.6832 47.1591 89.4257 47.3636 89.9673 47.7727C90.509 48.178 90.867 48.7216 91.0412 49.4034Z" fill="white"/>
<path d="M344.033 55.3929H345.818V51.8214H349.388V50.0357H345.818V46.4643H344.033V50.0357H340.463V51.8214H344.033V55.3929ZM344.925 59.8571C343.69 59.8571 342.53 59.6226 341.444 59.1536C340.358 58.6851 339.414 58.0491 338.611 57.2455C337.807 56.442 337.172 55.497 336.703 54.4107C336.234 53.3244 336 52.1637 336 50.9286C336 49.6935 336.234 48.5327 336.703 47.4464C337.172 46.3601 337.807 45.4152 338.611 44.6116C339.414 43.808 340.358 43.1717 341.444 42.7027C342.53 42.2342 343.69 42 344.925 42C346.16 42 347.32 42.2342 348.406 42.7027C349.492 43.1717 350.436 43.808 351.239 44.6116C352.043 45.4152 352.678 46.3601 353.147 47.4464C353.616 48.5327 353.85 49.6935 353.85 50.9286C353.85 52.1637 353.616 53.3244 353.147 54.4107C352.678 55.497 352.043 56.442 351.239 57.2455C350.436 58.0491 349.492 58.6851 348.406 59.1536C347.32 59.6226 346.16 59.8571 344.925 59.8571ZM344.925 58.0714C346.918 58.0714 348.607 57.3795 349.99 55.9955C351.373 54.6116 352.065 52.9226 352.065 50.9286C352.065 48.9345 351.373 47.2455 349.99 45.8616C348.607 44.4777 346.918 43.7857 344.925 43.7857C342.932 43.7857 341.243 44.4777 339.86 45.8616C338.477 47.2455 337.785 48.9345 337.785 50.9286C337.785 52.9226 338.477 54.6116 339.86 55.9955C341.243 57.3795 342.932 58.0714 344.925 58.0714Z" fill="white"/>
<rect x="19" y="72" width="335" height="271" rx="5" fill="#913F3F"/>
<path d="M30 72H349C351.761 72 354 74.2386 354 77V338C354 340.761 351.761 343 349 343H30V72Z" fill="#313131"/>
<path d="M45.8011 90.3636C45.7415 89.8598 45.4995 89.4688 45.0753 89.1903C44.651 88.9119 44.1307 88.7727 43.5142 88.7727C43.0634 88.7727 42.669 88.8456 42.331 88.9915C41.9962 89.1373 41.7344 89.3378 41.5455 89.593C41.3598 89.8482 41.267 90.1383 41.267 90.4631C41.267 90.7348 41.3317 90.9685 41.4609 91.1641C41.5935 91.3563 41.7625 91.517 41.968 91.6463C42.1735 91.7723 42.389 91.8767 42.6143 91.9595C42.8397 92.0391 43.0469 92.1037 43.2358 92.1534L44.2699 92.4318C44.535 92.5014 44.83 92.5975 45.1548 92.7202C45.483 92.8428 45.7962 93.0102 46.0945 93.2223C46.3961 93.4311 46.6446 93.6996 46.8402 94.0277C47.0357 94.3558 47.1335 94.7585 47.1335 95.2358C47.1335 95.786 46.9893 96.2831 46.701 96.7273C46.416 97.1714 45.9983 97.5244 45.4482 97.7862C44.9013 98.0481 44.2367 98.179 43.4545 98.179C42.7254 98.179 42.094 98.0613 41.5604 97.826C41.0301 97.5907 40.6125 97.2625 40.3075 96.8416C40.0059 96.4207 39.8352 95.9318 39.7955 95.375H41.0682C41.1013 95.7595 41.2306 96.0777 41.456 96.3295C41.6847 96.5781 41.973 96.7637 42.321 96.8864C42.6723 97.0057 43.0502 97.0653 43.4545 97.0653C43.9252 97.0653 44.3478 96.9891 44.7223 96.8366C45.0968 96.6809 45.3935 96.4654 45.6122 96.1903C45.831 95.9119 45.9403 95.5871 45.9403 95.2159C45.9403 94.8778 45.8459 94.6027 45.657 94.3906C45.468 94.1785 45.2195 94.0062 44.9112 93.8736C44.603 93.741 44.2699 93.625 43.9119 93.5256L42.6591 93.1676C41.8636 92.9389 41.2339 92.6125 40.7699 92.1882C40.3059 91.764 40.0739 91.2088 40.0739 90.5227C40.0739 89.9527 40.228 89.4555 40.5362 89.0312C40.8478 88.6037 41.2654 88.2723 41.7891 88.0369C42.3161 87.7983 42.9044 87.679 43.554 87.679C44.2102 87.679 44.7936 87.7966 45.304 88.032C45.8144 88.264 46.2188 88.5821 46.517 88.9865C46.8187 89.3909 46.9777 89.8499 46.9943 90.3636H45.8011ZM54.2118 100.864V96.8267H54.1124C54.0262 96.9659 53.9036 97.1416 53.7445 97.3537C53.5854 97.5625 53.3584 97.7498 53.0634 97.9155C52.7684 98.0779 52.3757 98.1591 51.8851 98.1591C51.2488 98.1591 50.687 97.9983 50.1998 97.6768C49.7125 97.352 49.3314 96.8946 49.0563 96.3047C48.7812 95.7114 48.6436 95.0104 48.6436 94.2017C48.6436 93.3996 48.7812 92.7036 49.0563 92.1136C49.3314 91.5237 49.7142 91.0679 50.2047 90.7464C50.6953 90.425 51.262 90.2642 51.905 90.2642C52.4022 90.2642 52.7949 90.3471 53.0833 90.5128C53.3749 90.6752 53.597 90.8608 53.7495 91.0696C53.9052 91.2751 54.0262 91.4441 54.1124 91.5767H54.2516V90.3636H55.3851V100.864H54.2118ZM52.0442 97.1051C52.5149 97.1051 52.9126 96.9825 53.2374 96.7372C53.5622 96.4886 53.8091 96.1456 53.9782 95.7081C54.1472 95.2673 54.2317 94.7585 54.2317 94.1818C54.2317 93.6117 54.1489 93.1129 53.9831 92.6854C53.8174 92.2545 53.5721 91.9197 53.2473 91.6811C52.9225 91.4392 52.5215 91.3182 52.0442 91.3182C51.5471 91.3182 51.1328 91.4458 50.8013 91.701C50.4732 91.9529 50.2263 92.2959 50.0605 92.7301C49.8981 93.161 49.8169 93.6449 49.8169 94.1818C49.8169 94.7254 49.8998 95.2192 50.0655 95.6634C50.2346 96.1042 50.4831 96.4555 50.8113 96.7173C51.1427 96.9759 51.5537 97.1051 52.0442 97.1051ZM62.3453 94.8778V90.3636H63.5186V98H62.3453V96.7074H62.2658C62.0868 97.0952 61.8084 97.425 61.4306 97.6967C61.0527 97.9652 60.5755 98.0994 59.9988 98.0994C59.5215 98.0994 59.0972 97.995 58.726 97.7862C58.3548 97.5741 58.0632 97.2559 57.851 96.8317C57.6389 96.4041 57.5328 95.8655 57.5328 95.2159V90.3636H58.7061V95.1364C58.7061 95.6932 58.8619 96.1373 59.1735 96.4688C59.4883 96.8002 59.8894 96.9659 60.3766 96.9659C60.6683 96.9659 60.9649 96.8913 61.2665 96.7422C61.5714 96.593 61.8266 96.3643 62.0321 96.0561C62.2409 95.7479 62.3453 95.3551 62.3453 94.8778ZM67.9148 98.179C67.4309 98.179 66.9917 98.0878 66.5973 97.9055C66.2029 97.7199 65.8897 97.4531 65.6577 97.1051C65.4257 96.7538 65.3097 96.3295 65.3097 95.8324C65.3097 95.3949 65.3958 95.0402 65.5682 94.7685C65.7405 94.4934 65.9709 94.2779 66.2592 94.1222C66.5476 93.9664 66.8658 93.8504 67.2138 93.7741C67.5651 93.6946 67.9181 93.6316 68.2727 93.5852C68.7367 93.5256 69.1129 93.4808 69.4013 93.451C69.6929 93.4179 69.9051 93.3632 70.0376 93.2869C70.1735 93.2107 70.2415 93.0781 70.2415 92.8892V92.8494C70.2415 92.3589 70.1072 91.9777 69.8388 91.706C69.5736 91.4342 69.1709 91.2983 68.6307 91.2983C68.0705 91.2983 67.6314 91.4209 67.3132 91.6662C66.995 91.9115 66.7713 92.1733 66.642 92.4517L65.5284 92.054C65.7273 91.59 65.9924 91.2287 66.3239 90.9702C66.6586 90.7083 67.0232 90.526 67.4176 90.4233C67.8153 90.3172 68.2064 90.2642 68.5909 90.2642C68.8362 90.2642 69.1179 90.294 69.4361 90.3537C69.7576 90.41 70.0675 90.5277 70.3658 90.7067C70.6674 90.8857 70.9176 91.1558 71.1165 91.517C71.3153 91.8783 71.4148 92.3622 71.4148 92.9688V98H70.2415V96.9659H70.1818C70.1023 97.1316 69.9697 97.3089 69.7841 97.4979C69.5985 97.6868 69.3516 97.8475 69.0433 97.9801C68.7351 98.1127 68.3589 98.179 67.9148 98.179ZM68.0938 97.125C68.5578 97.125 68.9489 97.0339 69.267 96.8516C69.5885 96.6693 69.8305 96.4339 69.9929 96.1456C70.1586 95.8572 70.2415 95.554 70.2415 95.2358V94.1619C70.1918 94.2216 70.0824 94.2763 69.9134 94.326C69.7476 94.3724 69.5554 94.4138 69.3366 94.4503C69.1212 94.4834 68.9107 94.5133 68.7053 94.5398C68.5031 94.563 68.339 94.5829 68.2131 94.5994C67.9081 94.6392 67.6231 94.7038 67.358 94.7933C67.0961 94.8795 66.884 95.0104 66.7216 95.1861C66.5625 95.3584 66.483 95.5937 66.483 95.892C66.483 96.2997 66.6338 96.608 66.9354 96.8168C67.2403 97.0223 67.6264 97.125 68.0938 97.125ZM76.8773 90.3636V91.358H72.9199V90.3636H76.8773ZM74.0733 88.5341H75.2466V95.8125C75.2466 96.1439 75.2947 96.3925 75.3908 96.5582C75.4902 96.7206 75.6162 96.83 75.7686 96.8864C75.9244 96.9394 76.0885 96.9659 76.2608 96.9659C76.3901 96.9659 76.4962 96.9593 76.579 96.946C76.6619 96.9295 76.7282 96.9162 76.7779 96.9062L77.0165 97.9602C76.937 97.9901 76.8259 98.0199 76.6834 98.0497C76.5409 98.0829 76.3603 98.0994 76.1415 98.0994C75.8101 98.0994 75.4853 98.0282 75.1671 97.8857C74.8522 97.7431 74.5904 97.526 74.3816 97.2344C74.1761 96.9427 74.0733 96.5748 74.0733 96.1307V88.5341ZM83.9146 92.0739L82.8606 92.3722C82.7943 92.1965 82.6966 92.0258 82.5673 91.8601C82.4413 91.6911 82.269 91.5518 82.0502 91.4425C81.8315 91.3331 81.5514 91.2784 81.21 91.2784C80.7427 91.2784 80.3533 91.3861 80.0417 91.6016C79.7335 91.8137 79.5794 92.0838 79.5794 92.4119C79.5794 92.7036 79.6854 92.9339 79.8975 93.103C80.1097 93.272 80.4411 93.4129 80.8919 93.5256L82.0254 93.804C82.7082 93.9697 83.2169 94.2232 83.5517 94.5646C83.8864 94.9027 84.0538 95.3385 84.0538 95.8722C84.0538 96.3097 83.9279 96.7008 83.676 97.0455C83.4274 97.3902 83.0794 97.6619 82.6319 97.8608C82.1845 98.0597 81.6641 98.1591 81.0708 98.1591C80.292 98.1591 79.6473 97.9901 79.1369 97.652C78.6265 97.3139 78.3033 96.8201 78.1674 96.1705L79.2811 95.892C79.3871 96.303 79.5877 96.6113 79.8826 96.8168C80.1809 97.0223 80.5704 97.125 81.051 97.125C81.5978 97.125 82.032 97.009 82.3535 96.777C82.6783 96.5417 82.8407 96.2599 82.8407 95.9318C82.8407 95.6667 82.7479 95.4446 82.5623 95.2656C82.3767 95.0833 82.0917 94.9474 81.7072 94.858L80.4345 94.5597C79.7351 94.3939 79.2214 94.1371 78.8933 93.7891C78.5685 93.4377 78.4061 92.9986 78.4061 92.4716C78.4061 92.0407 78.527 91.6596 78.769 91.3281C79.0143 90.9967 79.3474 90.7365 79.7683 90.5476C80.1925 90.3587 80.6731 90.2642 81.21 90.2642C81.9657 90.2642 82.559 90.4299 82.9899 90.7614C83.4241 91.0928 83.7323 91.5303 83.9146 92.0739Z" fill="white"/>
<path d="M289.903 90.4545C289.852 90.0227 289.645 89.6875 289.281 89.4489C288.918 89.2102 288.472 89.0909 287.943 89.0909C287.557 89.0909 287.219 89.1534 286.929 89.2784C286.642 89.4034 286.418 89.5753 286.256 89.794C286.097 90.0128 286.017 90.2614 286.017 90.5398C286.017 90.7727 286.072 90.973 286.183 91.1406C286.297 91.3054 286.442 91.4432 286.618 91.554C286.794 91.6619 286.979 91.7514 287.172 91.8224C287.365 91.8906 287.543 91.946 287.704 91.9886L288.591 92.2273C288.818 92.2869 289.071 92.3693 289.349 92.4744C289.631 92.5795 289.899 92.723 290.155 92.9048C290.413 93.0838 290.626 93.3139 290.794 93.5952C290.962 93.8764 291.045 94.2216 291.045 94.6307C291.045 95.1023 290.922 95.5284 290.675 95.9091C290.43 96.2898 290.072 96.5923 289.601 96.8168C289.132 97.0412 288.562 97.1534 287.892 97.1534C287.267 97.1534 286.726 97.0526 286.268 96.8509C285.814 96.6491 285.456 96.3679 285.195 96.0071C284.936 95.6463 284.79 95.2273 284.756 94.75H285.847C285.875 95.0795 285.986 95.3523 286.179 95.5682C286.375 95.7812 286.622 95.9403 286.92 96.0455C287.222 96.1477 287.545 96.1989 287.892 96.1989C288.295 96.1989 288.658 96.1335 288.979 96.0028C289.3 95.8693 289.554 95.6847 289.741 95.4489C289.929 95.2102 290.023 94.9318 290.023 94.6136C290.023 94.3239 289.942 94.0881 289.78 93.9062C289.618 93.7244 289.405 93.5767 289.141 93.4631C288.876 93.3494 288.591 93.25 288.284 93.1648L287.21 92.858C286.528 92.6619 285.989 92.3821 285.591 92.0185C285.193 91.6548 284.994 91.179 284.994 90.5909C284.994 90.1023 285.126 89.6761 285.391 89.3125C285.658 88.946 286.016 88.6619 286.464 88.4602C286.916 88.2557 287.42 88.1534 287.977 88.1534C288.54 88.1534 289.04 88.2543 289.477 88.456C289.915 88.6548 290.261 88.9276 290.517 89.2741C290.775 89.6207 290.912 90.0142 290.926 90.4545H289.903ZM295.391 97.1364C294.76 97.1364 294.216 96.9972 293.759 96.7188C293.304 96.4375 292.953 96.0455 292.706 95.5426C292.462 95.0369 292.34 94.4489 292.34 93.7784C292.34 93.108 292.462 92.517 292.706 92.0057C292.953 91.4915 293.297 91.0909 293.737 90.804C294.181 90.5142 294.698 90.3693 295.289 90.3693C295.63 90.3693 295.966 90.4261 296.299 90.5398C296.631 90.6534 296.934 90.8381 297.206 91.0938C297.479 91.3466 297.696 91.6818 297.858 92.0994C298.02 92.517 298.101 93.0312 298.101 93.642V94.0682H293.056V93.1989H297.078C297.078 92.8295 297.005 92.5 296.857 92.2102C296.712 91.9205 296.505 91.6918 296.235 91.5241C295.968 91.3565 295.652 91.2727 295.289 91.2727C294.888 91.2727 294.541 91.3722 294.249 91.571C293.959 91.767 293.736 92.0227 293.58 92.3381C293.424 92.6534 293.345 92.9915 293.345 93.3523V93.9318C293.345 94.4261 293.431 94.8452 293.601 95.1889C293.774 95.5298 294.014 95.7898 294.321 95.9688C294.628 96.1449 294.985 96.233 295.391 96.233C295.655 96.233 295.894 96.196 296.107 96.1222C296.323 96.0455 296.509 95.9318 296.665 95.7812C296.821 95.6278 296.942 95.4375 297.027 95.2102L297.999 95.483C297.897 95.8125 297.725 96.1023 297.483 96.3523C297.242 96.5994 296.943 96.7926 296.588 96.9318C296.233 97.0682 295.834 97.1364 295.391 97.1364ZM302.478 90.4545V91.3068H299.086V90.4545H302.478ZM300.074 88.8864H301.08V95.125C301.08 95.4091 301.121 95.6222 301.203 95.7642C301.289 95.9034 301.397 95.9972 301.527 96.0455C301.661 96.0909 301.801 96.1136 301.949 96.1136C302.06 96.1136 302.151 96.108 302.222 96.0966C302.293 96.0824 302.35 96.071 302.392 96.0625L302.597 96.9659C302.529 96.9915 302.434 97.017 302.311 97.0426C302.189 97.071 302.034 97.0852 301.847 97.0852C301.563 97.0852 301.284 97.0241 301.012 96.902C300.742 96.7798 300.517 96.5938 300.338 96.3438C300.162 96.0938 300.074 95.7784 300.074 95.3977V88.8864ZM308.51 91.9205L307.606 92.1761C307.549 92.0256 307.465 91.8793 307.355 91.7372C307.247 91.5923 307.099 91.473 306.911 91.3793C306.724 91.2855 306.484 91.2386 306.191 91.2386C305.791 91.2386 305.457 91.331 305.19 91.5156C304.926 91.6974 304.794 91.929 304.794 92.2102C304.794 92.4602 304.885 92.6577 305.066 92.8026C305.248 92.9474 305.532 93.0682 305.919 93.1648L306.89 93.4034C307.475 93.5455 307.911 93.7628 308.198 94.0554C308.485 94.3452 308.629 94.7187 308.629 95.1761C308.629 95.5511 308.521 95.8864 308.305 96.1818C308.092 96.4773 307.794 96.7102 307.41 96.8807C307.027 97.0511 306.581 97.1364 306.072 97.1364C305.404 97.1364 304.852 96.9915 304.414 96.7017C303.977 96.4119 303.7 95.9886 303.583 95.4318L304.538 95.1932C304.629 95.5455 304.801 95.8097 305.054 95.9858C305.309 96.1619 305.643 96.25 306.055 96.25C306.524 96.25 306.896 96.1506 307.171 95.9517C307.45 95.75 307.589 95.5085 307.589 95.2273C307.589 95 307.51 94.8097 307.35 94.6562C307.191 94.5 306.947 94.3835 306.617 94.3068L305.527 94.0511C304.927 93.9091 304.487 93.6889 304.206 93.3906C303.927 93.0895 303.788 92.7131 303.788 92.2614C303.788 91.892 303.892 91.5653 304.099 91.2812C304.309 90.9972 304.595 90.7741 304.956 90.6122C305.319 90.4503 305.731 90.3693 306.191 90.3693C306.839 90.3693 307.348 90.5114 307.717 90.7955C308.089 91.0795 308.353 91.4545 308.51 91.9205Z" fill="white"/>
<rect x="315.99" y="78.6484" width="29.3266" height="27.7027" rx="5" fill="#1C1C1C"/>
<path d="M330.634 96.7678C330.134 96.7678 329.683 96.6683 329.283 96.4695C328.882 96.2706 328.561 95.9979 328.32 95.6513C328.078 95.3047 327.946 94.9098 327.923 94.4666H328.946C328.986 94.8615 329.165 95.1882 329.483 95.4467C329.804 95.7024 330.188 95.8303 330.634 95.8303C330.992 95.8303 331.31 95.7464 331.588 95.5788C331.869 95.4112 332.09 95.1811 332.249 94.8885C332.411 94.593 332.492 94.2592 332.492 93.8871C332.492 93.5064 332.408 93.1669 332.24 92.8686C332.075 92.5675 331.848 92.3303 331.558 92.157C331.269 91.9837 330.938 91.8956 330.565 91.8928C330.298 91.8899 330.024 91.9311 329.743 92.0163C329.462 92.0987 329.23 92.2053 329.048 92.3359L328.06 92.2166L328.588 87.9212H333.122V88.8587H329.474L329.168 91.4325H329.219C329.398 91.2905 329.622 91.1726 329.892 91.0788C330.162 90.9851 330.443 90.9382 330.736 90.9382C331.27 90.9382 331.746 91.0661 332.163 91.3217C332.584 91.5746 332.913 91.9212 333.152 92.3615C333.394 92.8018 333.514 93.3047 333.514 93.87C333.514 94.4268 333.389 94.924 333.139 95.3615C332.892 95.7962 332.551 96.1399 332.117 96.3928C331.682 96.6428 331.188 96.7678 330.634 96.7678Z" fill="#757575"/>
<rect x="305" y="120" width="40.48" height="22" rx="10" fill="#34B751"/>
<ellipse cx="333.92" cy="131" rx="7.92" ry="7.48" fill="white"/>
<path d="M321.088 165V158.455H322.06V159.443H322.128C322.248 159.119 322.463 158.857 322.776 158.655C323.088 158.453 323.441 158.352 323.833 158.352C323.907 158.352 323.999 158.354 324.11 158.357C324.221 158.359 324.304 158.364 324.361 158.369V159.392C324.327 159.384 324.249 159.371 324.127 159.354C324.007 159.334 323.881 159.324 323.748 159.324C323.429 159.324 323.145 159.391 322.895 159.524C322.648 159.655 322.452 159.837 322.307 160.07C322.165 160.3 322.094 160.562 322.094 160.858V165H321.088ZM328.098 165.136C327.468 165.136 326.924 164.997 326.466 164.719C326.012 164.438 325.661 164.045 325.414 163.543C325.169 163.037 325.047 162.449 325.047 161.778C325.047 161.108 325.169 160.517 325.414 160.006C325.661 159.491 326.005 159.091 326.445 158.804C326.888 158.514 327.405 158.369 327.996 158.369C328.337 158.369 328.674 158.426 329.006 158.54C329.338 158.653 329.641 158.838 329.914 159.094C330.186 159.347 330.404 159.682 330.566 160.099C330.728 160.517 330.809 161.031 330.809 161.642V162.068H325.763V161.199H329.786C329.786 160.83 329.712 160.5 329.564 160.21C329.419 159.92 329.212 159.692 328.942 159.524C328.675 159.357 328.36 159.273 327.996 159.273C327.596 159.273 327.249 159.372 326.956 159.571C326.667 159.767 326.444 160.023 326.287 160.338C326.131 160.653 326.053 160.991 326.053 161.352V161.932C326.053 162.426 326.138 162.845 326.309 163.189C326.482 163.53 326.722 163.79 327.029 163.969C327.336 164.145 327.692 164.233 328.098 164.233C328.363 164.233 328.601 164.196 328.814 164.122C329.03 164.045 329.216 163.932 329.373 163.781C329.529 163.628 329.65 163.437 329.735 163.21L330.706 163.483C330.604 163.812 330.432 164.102 330.191 164.352C329.949 164.599 329.651 164.793 329.296 164.932C328.941 165.068 328.542 165.136 328.098 165.136ZM332.338 167.455V158.455H333.31V159.494H333.429C333.503 159.381 333.605 159.236 333.736 159.06C333.87 158.881 334.06 158.722 334.307 158.582C334.557 158.44 334.895 158.369 335.321 158.369C335.873 158.369 336.358 158.507 336.779 158.783C337.199 159.058 337.527 159.449 337.763 159.955C337.999 160.46 338.117 161.057 338.117 161.744C338.117 162.438 337.999 163.038 337.763 163.547C337.527 164.053 337.201 164.445 336.783 164.723C336.365 164.999 335.884 165.136 335.338 165.136C334.918 165.136 334.581 165.067 334.328 164.928C334.076 164.786 333.881 164.625 333.745 164.446C333.608 164.264 333.503 164.114 333.429 163.994H333.344V167.455H332.338ZM333.327 161.727C333.327 162.222 333.4 162.658 333.544 163.036C333.689 163.411 333.901 163.705 334.179 163.918C334.458 164.128 334.799 164.233 335.202 164.233C335.623 164.233 335.973 164.122 336.255 163.901C336.539 163.676 336.752 163.375 336.894 162.997C337.039 162.616 337.111 162.193 337.111 161.727C337.111 161.267 337.04 160.852 336.898 160.483C336.759 160.111 336.547 159.817 336.263 159.601C335.982 159.382 335.628 159.273 335.202 159.273C334.793 159.273 334.449 159.376 334.171 159.584C333.892 159.788 333.682 160.075 333.54 160.445C333.398 160.811 333.327 161.239 333.327 161.727ZM344.287 159.92L343.384 160.176C343.327 160.026 343.243 159.879 343.132 159.737C343.025 159.592 342.877 159.473 342.689 159.379C342.502 159.286 342.262 159.239 341.969 159.239C341.569 159.239 341.235 159.331 340.968 159.516C340.703 159.697 340.571 159.929 340.571 160.21C340.571 160.46 340.662 160.658 340.844 160.803C341.026 160.947 341.31 161.068 341.696 161.165L342.668 161.403C343.253 161.545 343.689 161.763 343.976 162.055C344.263 162.345 344.407 162.719 344.407 163.176C344.407 163.551 344.299 163.886 344.083 164.182C343.87 164.477 343.571 164.71 343.188 164.881C342.804 165.051 342.358 165.136 341.85 165.136C341.182 165.136 340.63 164.991 340.192 164.702C339.755 164.412 339.478 163.989 339.361 163.432L340.316 163.193C340.407 163.545 340.578 163.81 340.831 163.986C341.087 164.162 341.421 164.25 341.833 164.25C342.301 164.25 342.674 164.151 342.949 163.952C343.228 163.75 343.367 163.509 343.367 163.227C343.367 163 343.287 162.81 343.128 162.656C342.969 162.5 342.725 162.384 342.395 162.307L341.304 162.051C340.705 161.909 340.265 161.689 339.983 161.391C339.705 161.089 339.566 160.713 339.566 160.261C339.566 159.892 339.669 159.565 339.877 159.281C340.087 158.997 340.373 158.774 340.733 158.612C341.097 158.45 341.509 158.369 341.969 158.369C342.617 158.369 343.125 158.511 343.495 158.795C343.867 159.08 344.131 159.455 344.287 159.92Z" fill="white"/>
<rect x="283.01" y="151" width="29" height="21" rx="5" fill="#1C1C1C"/>
<path d="M297.48 166.119C296.98 166.119 296.53 166.02 296.129 165.821C295.729 165.622 295.408 165.349 295.166 165.003C294.925 164.656 294.793 164.261 294.77 163.818H295.793C295.833 164.213 296.012 164.54 296.33 164.798C296.651 165.054 297.034 165.182 297.48 165.182C297.838 165.182 298.156 165.098 298.435 164.93C298.716 164.763 298.936 164.533 299.095 164.24C299.257 163.945 299.338 163.611 299.338 163.239C299.338 162.858 299.254 162.518 299.087 162.22C298.922 161.919 298.695 161.682 298.405 161.509C298.115 161.335 297.784 161.247 297.412 161.244C297.145 161.241 296.871 161.283 296.59 161.368C296.308 161.45 296.077 161.557 295.895 161.688L294.906 161.568L295.435 157.273H299.969V158.21H296.321L296.014 160.784H296.066C296.244 160.642 296.469 160.524 296.739 160.43C297.009 160.337 297.29 160.29 297.583 160.29C298.117 160.29 298.593 160.418 299.01 160.673C299.431 160.926 299.76 161.273 299.999 161.713C300.24 162.153 300.361 162.656 300.361 163.222C300.361 163.778 300.236 164.276 299.986 164.713C299.739 165.148 299.398 165.491 298.963 165.744C298.529 165.994 298.034 166.119 297.48 166.119Z" fill="#757575"/>
<path d="M44.8295 159.455C44.7784 159.023 44.571 158.688 44.2074 158.449C43.8438 158.21 43.3977 158.091 42.8693 158.091C42.483 158.091 42.1449 158.153 41.8551 158.278C41.5682 158.403 41.3438 158.575 41.1818 158.794C41.0227 159.013 40.9432 159.261 40.9432 159.54C40.9432 159.773 40.9986 159.973 41.1094 160.141C41.223 160.305 41.3679 160.443 41.544 160.554C41.7202 160.662 41.9048 160.751 42.098 160.822C42.2912 160.891 42.4688 160.946 42.6307 160.989L43.517 161.227C43.7443 161.287 43.9972 161.369 44.2756 161.474C44.5568 161.58 44.8253 161.723 45.081 161.905C45.3395 162.084 45.5526 162.314 45.7202 162.595C45.8878 162.876 45.9716 163.222 45.9716 163.631C45.9716 164.102 45.848 164.528 45.6009 164.909C45.3565 165.29 44.9986 165.592 44.527 165.817C44.0582 166.041 43.4886 166.153 42.8182 166.153C42.1932 166.153 41.652 166.053 41.1946 165.851C40.7401 165.649 40.3821 165.368 40.1207 165.007C39.8622 164.646 39.7159 164.227 39.6818 163.75H40.7727C40.8011 164.08 40.9119 164.352 41.1051 164.568C41.3011 164.781 41.5483 164.94 41.8466 165.045C42.1477 165.148 42.4716 165.199 42.8182 165.199C43.2216 165.199 43.5838 165.134 43.9048 165.003C44.2259 164.869 44.4801 164.685 44.6676 164.449C44.8551 164.21 44.9489 163.932 44.9489 163.614C44.9489 163.324 44.8679 163.088 44.706 162.906C44.544 162.724 44.331 162.577 44.0668 162.463C43.8026 162.349 43.517 162.25 43.2102 162.165L42.1364 161.858C41.4545 161.662 40.9148 161.382 40.517 161.018C40.1193 160.655 39.9205 160.179 39.9205 159.591C39.9205 159.102 40.0526 158.676 40.3168 158.312C40.5838 157.946 40.9418 157.662 41.3906 157.46C41.8423 157.256 42.3466 157.153 42.9034 157.153C43.4659 157.153 43.9659 157.254 44.4034 157.456C44.8409 157.655 45.1875 157.928 45.4432 158.274C45.7017 158.621 45.8381 159.014 45.8523 159.455H44.8295ZM50.3171 166.136C49.6864 166.136 49.1424 165.997 48.685 165.719C48.2305 165.438 47.8796 165.045 47.6325 164.543C47.3881 164.037 47.266 163.449 47.266 162.778C47.266 162.108 47.3881 161.517 47.6325 161.006C47.8796 160.491 48.2234 160.091 48.6637 159.804C49.1069 159.514 49.6239 159.369 50.2148 159.369C50.5558 159.369 50.8924 159.426 51.2248 159.54C51.5572 159.653 51.8597 159.838 52.1325 160.094C52.4052 160.347 52.6225 160.682 52.7844 161.099C52.9464 161.517 53.0273 162.031 53.0273 162.642V163.068H47.9819V162.199H52.0046C52.0046 161.83 51.9308 161.5 51.783 161.21C51.6381 160.92 51.4308 160.692 51.1609 160.524C50.8938 160.357 50.5785 160.273 50.2148 160.273C49.8143 160.273 49.4677 160.372 49.1751 160.571C48.8853 160.767 48.6623 161.023 48.506 161.338C48.3498 161.653 48.2717 161.991 48.2717 162.352V162.932C48.2717 163.426 48.3569 163.845 48.5273 164.189C48.7006 164.53 48.9407 164.79 49.2475 164.969C49.5543 165.145 49.9109 165.233 50.3171 165.233C50.5813 165.233 50.82 165.196 51.033 165.122C51.2489 165.045 51.435 164.932 51.5913 164.781C51.7475 164.628 51.8683 164.437 51.9535 164.21L52.9251 164.483C52.8228 164.812 52.6509 165.102 52.4094 165.352C52.168 165.599 51.8697 165.793 51.5146 165.932C51.1594 166.068 50.7603 166.136 50.3171 166.136ZM57.4038 159.455V160.307H54.0117V159.455H57.4038ZM55.0004 157.886H56.006V164.125C56.006 164.409 56.0472 164.622 56.1296 164.764C56.2148 164.903 56.3228 164.997 56.4535 165.045C56.587 165.091 56.7276 165.114 56.8754 165.114C56.9862 165.114 57.0771 165.108 57.1481 165.097C57.2191 165.082 57.2759 165.071 57.3185 165.062L57.5231 165.966C57.4549 165.991 57.3597 166.017 57.2376 166.043C57.1154 166.071 56.9606 166.085 56.7731 166.085C56.489 166.085 56.2106 166.024 55.9379 165.902C55.668 165.78 55.4435 165.594 55.2646 165.344C55.0884 165.094 55.0004 164.778 55.0004 164.398V157.886ZM65.3427 157.273V166H64.2859V158.381H64.2347L62.104 159.795V158.722L64.2859 157.273H65.3427Z" fill="white"/>
<path d="M321.088 189V182.455H322.06V183.443H322.128C322.248 183.119 322.463 182.857 322.776 182.655C323.088 182.453 323.441 182.352 323.833 182.352C323.907 182.352 323.999 182.354 324.11 182.357C324.221 182.359 324.304 182.364 324.361 182.369V183.392C324.327 183.384 324.249 183.371 324.127 183.354C324.007 183.334 323.881 183.324 323.748 183.324C323.429 183.324 323.145 183.391 322.895 183.524C322.648 183.655 322.452 183.837 322.307 184.07C322.165 184.3 322.094 184.562 322.094 184.858V189H321.088ZM328.098 189.136C327.468 189.136 326.924 188.997 326.466 188.719C326.012 188.438 325.661 188.045 325.414 187.543C325.169 187.037 325.047 186.449 325.047 185.778C325.047 185.108 325.169 184.517 325.414 184.006C325.661 183.491 326.005 183.091 326.445 182.804C326.888 182.514 327.405 182.369 327.996 182.369C328.337 182.369 328.674 182.426 329.006 182.54C329.338 182.653 329.641 182.838 329.914 183.094C330.186 183.347 330.404 183.682 330.566 184.099C330.728 184.517 330.809 185.031 330.809 185.642V186.068H325.763V185.199H329.786C329.786 184.83 329.712 184.5 329.564 184.21C329.419 183.92 329.212 183.692 328.942 183.524C328.675 183.357 328.36 183.273 327.996 183.273C327.596 183.273 327.249 183.372 326.956 183.571C326.667 183.767 326.444 184.023 326.287 184.338C326.131 184.653 326.053 184.991 326.053 185.352V185.932C326.053 186.426 326.138 186.845 326.309 187.189C326.482 187.53 326.722 187.79 327.029 187.969C327.336 188.145 327.692 188.233 328.098 188.233C328.363 188.233 328.601 188.196 328.814 188.122C329.03 188.045 329.216 187.932 329.373 187.781C329.529 187.628 329.65 187.437 329.735 187.21L330.706 187.483C330.604 187.812 330.432 188.102 330.191 188.352C329.949 188.599 329.651 188.793 329.296 188.932C328.941 189.068 328.542 189.136 328.098 189.136ZM332.338 191.455V182.455H333.31V183.494H333.429C333.503 183.381 333.605 183.236 333.736 183.06C333.87 182.881 334.06 182.722 334.307 182.582C334.557 182.44 334.895 182.369 335.321 182.369C335.873 182.369 336.358 182.507 336.779 182.783C337.199 183.058 337.527 183.449 337.763 183.955C337.999 184.46 338.117 185.057 338.117 185.744C338.117 186.438 337.999 187.038 337.763 187.547C337.527 188.053 337.201 188.445 336.783 188.723C336.365 188.999 335.884 189.136 335.338 189.136C334.918 189.136 334.581 189.067 334.328 188.928C334.076 188.786 333.881 188.625 333.745 188.446C333.608 188.264 333.503 188.114 333.429 187.994H333.344V191.455H332.338ZM333.327 185.727C333.327 186.222 333.4 186.658 333.544 187.036C333.689 187.411 333.901 187.705 334.179 187.918C334.458 188.128 334.799 188.233 335.202 188.233C335.623 188.233 335.973 188.122 336.255 187.901C336.539 187.676 336.752 187.375 336.894 186.997C337.039 186.616 337.111 186.193 337.111 185.727C337.111 185.267 337.04 184.852 336.898 184.483C336.759 184.111 336.547 183.817 336.263 183.601C335.982 183.382 335.628 183.273 335.202 183.273C334.793 183.273 334.449 183.376 334.171 183.584C333.892 183.788 333.682 184.075 333.54 184.445C333.398 184.811 333.327 185.239 333.327 185.727ZM344.287 183.92L343.384 184.176C343.327 184.026 343.243 183.879 343.132 183.737C343.025 183.592 342.877 183.473 342.689 183.379C342.502 183.286 342.262 183.239 341.969 183.239C341.569 183.239 341.235 183.331 340.968 183.516C340.703 183.697 340.571 183.929 340.571 184.21C340.571 184.46 340.662 184.658 340.844 184.803C341.026 184.947 341.31 185.068 341.696 185.165L342.668 185.403C343.253 185.545 343.689 185.763 343.976 186.055C344.263 186.345 344.407 186.719 344.407 187.176C344.407 187.551 344.299 187.886 344.083 188.182C343.87 188.477 343.571 188.71 343.188 188.881C342.804 189.051 342.358 189.136 341.85 189.136C341.182 189.136 340.63 188.991 340.192 188.702C339.755 188.412 339.478 187.989 339.361 187.432L340.316 187.193C340.407 187.545 340.578 187.81 340.831 187.986C341.087 188.162 341.421 188.25 341.833 188.25C342.301 188.25 342.674 188.151 342.949 187.952C343.228 187.75 343.367 187.509 343.367 187.227C343.367 187 343.287 186.81 343.128 186.656C342.969 186.5 342.725 186.384 342.395 186.307L341.304 186.051C340.705 185.909 340.265 185.689 339.983 185.391C339.705 185.089 339.566 184.713 339.566 184.261C339.566 183.892 339.669 183.565 339.877 183.281C340.087 182.997 340.373 182.774 340.733 182.612C341.097 182.45 341.509 182.369 341.969 182.369C342.617 182.369 343.125 182.511 343.495 182.795C343.867 183.08 344.131 183.455 344.287 183.92Z" fill="white"/>
<rect x="283.01" y="175" width="29" height="21" rx="5" fill="#1C1C1C"/>
<path d="M297.48 190.119C296.98 190.119 296.53 190.02 296.129 189.821C295.729 189.622 295.408 189.349 295.166 189.003C294.925 188.656 294.793 188.261 294.77 187.818H295.793C295.833 188.213 296.012 188.54 296.33 188.798C296.651 189.054 297.034 189.182 297.48 189.182C297.838 189.182 298.156 189.098 298.435 188.93C298.716 188.763 298.936 188.533 299.095 188.24C299.257 187.945 299.338 187.611 299.338 187.239C299.338 186.858 299.254 186.518 299.087 186.22C298.922 185.919 298.695 185.682 298.405 185.509C298.115 185.335 297.784 185.247 297.412 185.244C297.145 185.241 296.871 185.283 296.59 185.368C296.308 185.45 296.077 185.557 295.895 185.688L294.906 185.568L295.435 181.273H299.969V182.21H296.321L296.014 184.784H296.066C296.244 184.642 296.469 184.524 296.739 184.43C297.009 184.337 297.29 184.29 297.583 184.29C298.117 184.29 298.593 184.418 299.01 184.673C299.431 184.926 299.76 185.273 299.999 185.713C300.24 186.153 300.361 186.656 300.361 187.222C300.361 187.778 300.236 188.276 299.986 188.713C299.739 189.148 299.398 189.491 298.963 189.744C298.529 189.994 298.034 190.119 297.48 190.119Z" fill="#757575"/>
<path d="M44.8295 183.455C44.7784 183.023 44.571 182.688 44.2074 182.449C43.8438 182.21 43.3977 182.091 42.8693 182.091C42.483 182.091 42.1449 182.153 41.8551 182.278C41.5682 182.403 41.3438 182.575 41.1818 182.794C41.0227 183.013 40.9432 183.261 40.9432 183.54C40.9432 183.773 40.9986 183.973 41.1094 184.141C41.223 184.305 41.3679 184.443 41.544 184.554C41.7202 184.662 41.9048 184.751 42.098 184.822C42.2912 184.891 42.4688 184.946 42.6307 184.989L43.517 185.227C43.7443 185.287 43.9972 185.369 44.2756 185.474C44.5568 185.58 44.8253 185.723 45.081 185.905C45.3395 186.084 45.5526 186.314 45.7202 186.595C45.8878 186.876 45.9716 187.222 45.9716 187.631C45.9716 188.102 45.848 188.528 45.6009 188.909C45.3565 189.29 44.9986 189.592 44.527 189.817C44.0582 190.041 43.4886 190.153 42.8182 190.153C42.1932 190.153 41.652 190.053 41.1946 189.851C40.7401 189.649 40.3821 189.368 40.1207 189.007C39.8622 188.646 39.7159 188.227 39.6818 187.75H40.7727C40.8011 188.08 40.9119 188.352 41.1051 188.568C41.3011 188.781 41.5483 188.94 41.8466 189.045C42.1477 189.148 42.4716 189.199 42.8182 189.199C43.2216 189.199 43.5838 189.134 43.9048 189.003C44.2259 188.869 44.4801 188.685 44.6676 188.449C44.8551 188.21 44.9489 187.932 44.9489 187.614C44.9489 187.324 44.8679 187.088 44.706 186.906C44.544 186.724 44.331 186.577 44.0668 186.463C43.8026 186.349 43.517 186.25 43.2102 186.165L42.1364 185.858C41.4545 185.662 40.9148 185.382 40.517 185.018C40.1193 184.655 39.9205 184.179 39.9205 183.591C39.9205 183.102 40.0526 182.676 40.3168 182.312C40.5838 181.946 40.9418 181.662 41.3906 181.46C41.8423 181.256 42.3466 181.153 42.9034 181.153C43.4659 181.153 43.9659 181.254 44.4034 181.456C44.8409 181.655 45.1875 181.928 45.4432 182.274C45.7017 182.621 45.8381 183.014 45.8523 183.455H44.8295ZM50.3171 190.136C49.6864 190.136 49.1424 189.997 48.685 189.719C48.2305 189.438 47.8796 189.045 47.6325 188.543C47.3881 188.037 47.266 187.449 47.266 186.778C47.266 186.108 47.3881 185.517 47.6325 185.006C47.8796 184.491 48.2234 184.091 48.6637 183.804C49.1069 183.514 49.6239 183.369 50.2148 183.369C50.5558 183.369 50.8924 183.426 51.2248 183.54C51.5572 183.653 51.8597 183.838 52.1325 184.094C52.4052 184.347 52.6225 184.682 52.7844 185.099C52.9464 185.517 53.0273 186.031 53.0273 186.642V187.068H47.9819V186.199H52.0046C52.0046 185.83 51.9308 185.5 51.783 185.21C51.6381 184.92 51.4308 184.692 51.1609 184.524C50.8938 184.357 50.5785 184.273 50.2148 184.273C49.8143 184.273 49.4677 184.372 49.1751 184.571C48.8853 184.767 48.6623 185.023 48.506 185.338C48.3498 185.653 48.2717 185.991 48.2717 186.352V186.932C48.2717 187.426 48.3569 187.845 48.5273 188.189C48.7006 188.53 48.9407 188.79 49.2475 188.969C49.5543 189.145 49.9109 189.233 50.3171 189.233C50.5813 189.233 50.82 189.196 51.033 189.122C51.2489 189.045 51.435 188.932 51.5913 188.781C51.7475 188.628 51.8683 188.437 51.9535 188.21L52.9251 188.483C52.8228 188.812 52.6509 189.102 52.4094 189.352C52.168 189.599 51.8697 189.793 51.5146 189.932C51.1594 190.068 50.7603 190.136 50.3171 190.136ZM57.4038 183.455V184.307H54.0117V183.455H57.4038ZM55.0004 181.886H56.006V188.125C56.006 188.409 56.0472 188.622 56.1296 188.764C56.2148 188.903 56.3228 188.997 56.4535 189.045C56.587 189.091 56.7276 189.114 56.8754 189.114C56.9862 189.114 57.0771 189.108 57.1481 189.097C57.2191 189.082 57.2759 189.071 57.3185 189.062L57.5231 189.966C57.4549 189.991 57.3597 190.017 57.2376 190.043C57.1154 190.071 56.9606 190.085 56.7731 190.085C56.489 190.085 56.2106 190.024 55.9379 189.902C55.668 189.78 55.4435 189.594 55.2646 189.344C55.0884 189.094 55.0004 188.778 55.0004 188.398V181.886ZM62.2745 190V189.233L65.1552 186.08C65.4933 185.71 65.7717 185.389 65.9904 185.116C66.2092 184.841 66.3711 184.582 66.4762 184.341C66.5842 184.097 66.6381 183.841 66.6381 183.574C66.6381 183.267 66.5643 183.001 66.4165 182.777C66.2717 182.553 66.0728 182.379 65.82 182.257C65.5671 182.135 65.283 182.074 64.9677 182.074C64.6325 182.074 64.3398 182.143 64.0898 182.283C63.8427 182.419 63.6509 182.611 63.5146 182.858C63.381 183.105 63.3143 183.395 63.3143 183.727H62.3086C62.3086 183.216 62.4265 182.767 62.6623 182.381C62.8981 181.994 63.2191 181.693 63.6254 181.477C64.0344 181.261 64.4933 181.153 65.0018 181.153C65.5131 181.153 65.9663 181.261 66.3612 181.477C66.756 181.693 67.0657 181.984 67.2901 182.351C67.5146 182.717 67.6268 183.125 67.6268 183.574C67.6268 183.895 67.5685 184.209 67.4521 184.516C67.3384 184.82 67.1396 185.159 66.8555 185.534C66.5742 185.906 66.1836 186.361 65.6836 186.898L63.7234 188.994V189.062H67.7802V190H62.2745Z" fill="white"/>
<path d="M321.088 213V206.455H322.06V207.443H322.128C322.248 207.119 322.463 206.857 322.776 206.655C323.088 206.453 323.441 206.352 323.833 206.352C323.907 206.352 323.999 206.354 324.11 206.357C324.221 206.359 324.304 206.364 324.361 206.369V207.392C324.327 207.384 324.249 207.371 324.127 207.354C324.007 207.334 323.881 207.324 323.748 207.324C323.429 207.324 323.145 207.391 322.895 207.524C322.648 207.655 322.452 207.837 322.307 208.07C322.165 208.3 322.094 208.562 322.094 208.858V213H321.088ZM328.098 213.136C327.468 213.136 326.924 212.997 326.466 212.719C326.012 212.438 325.661 212.045 325.414 211.543C325.169 211.037 325.047 210.449 325.047 209.778C325.047 209.108 325.169 208.517 325.414 208.006C325.661 207.491 326.005 207.091 326.445 206.804C326.888 206.514 327.405 206.369 327.996 206.369C328.337 206.369 328.674 206.426 329.006 206.54C329.338 206.653 329.641 206.838 329.914 207.094C330.186 207.347 330.404 207.682 330.566 208.099C330.728 208.517 330.809 209.031 330.809 209.642V210.068H325.763V209.199H329.786C329.786 208.83 329.712 208.5 329.564 208.21C329.419 207.92 329.212 207.692 328.942 207.524C328.675 207.357 328.36 207.273 327.996 207.273C327.596 207.273 327.249 207.372 326.956 207.571C326.667 207.767 326.444 208.023 326.287 208.338C326.131 208.653 326.053 208.991 326.053 209.352V209.932C326.053 210.426 326.138 210.845 326.309 211.189C326.482 211.53 326.722 211.79 327.029 211.969C327.336 212.145 327.692 212.233 328.098 212.233C328.363 212.233 328.601 212.196 328.814 212.122C329.03 212.045 329.216 211.932 329.373 211.781C329.529 211.628 329.65 211.437 329.735 211.21L330.706 211.483C330.604 211.812 330.432 212.102 330.191 212.352C329.949 212.599 329.651 212.793 329.296 212.932C328.941 213.068 328.542 213.136 328.098 213.136ZM332.338 215.455V206.455H333.31V207.494H333.429C333.503 207.381 333.605 207.236 333.736 207.06C333.87 206.881 334.06 206.722 334.307 206.582C334.557 206.44 334.895 206.369 335.321 206.369C335.873 206.369 336.358 206.507 336.779 206.783C337.199 207.058 337.527 207.449 337.763 207.955C337.999 208.46 338.117 209.057 338.117 209.744C338.117 210.438 337.999 211.038 337.763 211.547C337.527 212.053 337.201 212.445 336.783 212.723C336.365 212.999 335.884 213.136 335.338 213.136C334.918 213.136 334.581 213.067 334.328 212.928C334.076 212.786 333.881 212.625 333.745 212.446C333.608 212.264 333.503 212.114 333.429 211.994H333.344V215.455H332.338ZM333.327 209.727C333.327 210.222 333.4 210.658 333.544 211.036C333.689 211.411 333.901 211.705 334.179 211.918C334.458 212.128 334.799 212.233 335.202 212.233C335.623 212.233 335.973 212.122 336.255 211.901C336.539 211.676 336.752 211.375 336.894 210.997C337.039 210.616 337.111 210.193 337.111 209.727C337.111 209.267 337.04 208.852 336.898 208.483C336.759 208.111 336.547 207.817 336.263 207.601C335.982 207.382 335.628 207.273 335.202 207.273C334.793 207.273 334.449 207.376 334.171 207.584C333.892 207.788 333.682 208.075 333.54 208.445C333.398 208.811 333.327 209.239 333.327 209.727ZM344.287 207.92L343.384 208.176C343.327 208.026 343.243 207.879 343.132 207.737C343.025 207.592 342.877 207.473 342.689 207.379C342.502 207.286 342.262 207.239 341.969 207.239C341.569 207.239 341.235 207.331 340.968 207.516C340.703 207.697 340.571 207.929 340.571 208.21C340.571 208.46 340.662 208.658 340.844 208.803C341.026 208.947 341.31 209.068 341.696 209.165L342.668 209.403C343.253 209.545 343.689 209.763 343.976 210.055C344.263 210.345 344.407 210.719 344.407 211.176C344.407 211.551 344.299 211.886 344.083 212.182C343.87 212.477 343.571 212.71 343.188 212.881C342.804 213.051 342.358 213.136 341.85 213.136C341.182 213.136 340.63 212.991 340.192 212.702C339.755 212.412 339.478 211.989 339.361 211.432L340.316 211.193C340.407 211.545 340.578 211.81 340.831 211.986C341.087 212.162 341.421 212.25 341.833 212.25C342.301 212.25 342.674 212.151 342.949 211.952C343.228 211.75 343.367 211.509 343.367 211.227C343.367 211 343.287 210.81 343.128 210.656C342.969 210.5 342.725 210.384 342.395 210.307L341.304 210.051C340.705 209.909 340.265 209.689 339.983 209.391C339.705 209.089 339.566 208.713 339.566 208.261C339.566 207.892 339.669 207.565 339.877 207.281C340.087 206.997 340.373 206.774 340.733 206.612C341.097 206.45 341.509 206.369 341.969 206.369C342.617 206.369 343.125 206.511 343.495 206.795C343.867 207.08 344.131 207.455 344.287 207.92Z" fill="white"/>
<rect x="283.01" y="199" width="29" height="21" rx="5" fill="#1C1C1C"/>
<path d="M297.48 214.119C296.98 214.119 296.53 214.02 296.129 213.821C295.729 213.622 295.408 213.349 295.166 213.003C294.925 212.656 294.793 212.261 294.77 211.818H295.793C295.833 212.213 296.012 212.54 296.33 212.798C296.651 213.054 297.034 213.182 297.48 213.182C297.838 213.182 298.156 213.098 298.435 212.93C298.716 212.763 298.936 212.533 299.095 212.24C299.257 211.945 299.338 211.611 299.338 211.239C299.338 210.858 299.254 210.518 299.087 210.22C298.922 209.919 298.695 209.682 298.405 209.509C298.115 209.335 297.784 209.247 297.412 209.244C297.145 209.241 296.871 209.283 296.59 209.368C296.308 209.45 296.077 209.557 295.895 209.688L294.906 209.568L295.435 205.273H299.969V206.21H296.321L296.014 208.784H296.066C296.244 208.642 296.469 208.524 296.739 208.43C297.009 208.337 297.29 208.29 297.583 208.29C298.117 208.29 298.593 208.418 299.01 208.673C299.431 208.926 299.76 209.273 299.999 209.713C300.24 210.153 300.361 210.656 300.361 211.222C300.361 211.778 300.236 212.276 299.986 212.713C299.739 213.148 299.398 213.491 298.963 213.744C298.529 213.994 298.034 214.119 297.48 214.119Z" fill="#757575"/>
<path d="M44.8295 207.455C44.7784 207.023 44.571 206.688 44.2074 206.449C43.8438 206.21 43.3977 206.091 42.8693 206.091C42.483 206.091 42.1449 206.153 41.8551 206.278C41.5682 206.403 41.3438 206.575 41.1818 206.794C41.0227 207.013 40.9432 207.261 40.9432 207.54C40.9432 207.773 40.9986 207.973 41.1094 208.141C41.223 208.305 41.3679 208.443 41.544 208.554C41.7202 208.662 41.9048 208.751 42.098 208.822C42.2912 208.891 42.4688 208.946 42.6307 208.989L43.517 209.227C43.7443 209.287 43.9972 209.369 44.2756 209.474C44.5568 209.58 44.8253 209.723 45.081 209.905C45.3395 210.084 45.5526 210.314 45.7202 210.595C45.8878 210.876 45.9716 211.222 45.9716 211.631C45.9716 212.102 45.848 212.528 45.6009 212.909C45.3565 213.29 44.9986 213.592 44.527 213.817C44.0582 214.041 43.4886 214.153 42.8182 214.153C42.1932 214.153 41.652 214.053 41.1946 213.851C40.7401 213.649 40.3821 213.368 40.1207 213.007C39.8622 212.646 39.7159 212.227 39.6818 211.75H40.7727C40.8011 212.08 40.9119 212.352 41.1051 212.568C41.3011 212.781 41.5483 212.94 41.8466 213.045C42.1477 213.148 42.4716 213.199 42.8182 213.199C43.2216 213.199 43.5838 213.134 43.9048 213.003C44.2259 212.869 44.4801 212.685 44.6676 212.449C44.8551 212.21 44.9489 211.932 44.9489 211.614C44.9489 211.324 44.8679 211.088 44.706 210.906C44.544 210.724 44.331 210.577 44.0668 210.463C43.8026 210.349 43.517 210.25 43.2102 210.165L42.1364 209.858C41.4545 209.662 40.9148 209.382 40.517 209.018C40.1193 208.655 39.9205 208.179 39.9205 207.591C39.9205 207.102 40.0526 206.676 40.3168 206.312C40.5838 205.946 40.9418 205.662 41.3906 205.46C41.8423 205.256 42.3466 205.153 42.9034 205.153C43.4659 205.153 43.9659 205.254 44.4034 205.456C44.8409 205.655 45.1875 205.928 45.4432 206.274C45.7017 206.621 45.8381 207.014 45.8523 207.455H44.8295ZM50.3171 214.136C49.6864 214.136 49.1424 213.997 48.685 213.719C48.2305 213.438 47.8796 213.045 47.6325 212.543C47.3881 212.037 47.266 211.449 47.266 210.778C47.266 210.108 47.3881 209.517 47.6325 209.006C47.8796 208.491 48.2234 208.091 48.6637 207.804C49.1069 207.514 49.6239 207.369 50.2148 207.369C50.5558 207.369 50.8924 207.426 51.2248 207.54C51.5572 207.653 51.8597 207.838 52.1325 208.094C52.4052 208.347 52.6225 208.682 52.7844 209.099C52.9464 209.517 53.0273 210.031 53.0273 210.642V211.068H47.9819V210.199H52.0046C52.0046 209.83 51.9308 209.5 51.783 209.21C51.6381 208.92 51.4308 208.692 51.1609 208.524C50.8938 208.357 50.5785 208.273 50.2148 208.273C49.8143 208.273 49.4677 208.372 49.1751 208.571C48.8853 208.767 48.6623 209.023 48.506 209.338C48.3498 209.653 48.2717 209.991 48.2717 210.352V210.932C48.2717 211.426 48.3569 211.845 48.5273 212.189C48.7006 212.53 48.9407 212.79 49.2475 212.969C49.5543 213.145 49.9109 213.233 50.3171 213.233C50.5813 213.233 50.82 213.196 51.033 213.122C51.2489 213.045 51.435 212.932 51.5913 212.781C51.7475 212.628 51.8683 212.437 51.9535 212.21L52.9251 212.483C52.8228 212.812 52.6509 213.102 52.4094 213.352C52.168 213.599 51.8697 213.793 51.5146 213.932C51.1594 214.068 50.7603 214.136 50.3171 214.136ZM57.4038 207.455V208.307H54.0117V207.455H57.4038ZM55.0004 205.886H56.006V212.125C56.006 212.409 56.0472 212.622 56.1296 212.764C56.2148 212.903 56.3228 212.997 56.4535 213.045C56.587 213.091 56.7276 213.114 56.8754 213.114C56.9862 213.114 57.0771 213.108 57.1481 213.097C57.2191 213.082 57.2759 213.071 57.3185 213.062L57.5231 213.966C57.4549 213.991 57.3597 214.017 57.2376 214.043C57.1154 214.071 56.9606 214.085 56.7731 214.085C56.489 214.085 56.2106 214.024 55.9379 213.902C55.668 213.78 55.4435 213.594 55.2646 213.344C55.0884 213.094 55.0004 212.778 55.0004 212.398V205.886ZM65.2234 214.119C64.6609 214.119 64.1594 214.023 63.7191 213.83C63.2816 213.636 62.9336 213.368 62.6751 213.024C62.4194 212.678 62.2802 212.276 62.2575 211.818H63.3313C63.354 212.099 63.4506 212.342 63.6211 212.547C63.7915 212.749 64.0146 212.905 64.2901 213.016C64.5657 213.126 64.8711 213.182 65.2063 213.182C65.5813 213.182 65.9137 213.116 66.2035 212.986C66.4933 212.855 66.7205 212.673 66.8853 212.44C67.0501 212.207 67.1325 211.938 67.1325 211.631C67.1325 211.31 67.0529 211.027 66.8938 210.783C66.7347 210.536 66.5018 210.342 66.195 210.203C65.8881 210.064 65.5131 209.994 65.07 209.994H64.3711V209.057H65.07C65.4165 209.057 65.7205 208.994 65.9819 208.869C66.2461 208.744 66.4521 208.568 66.5998 208.341C66.7504 208.114 66.8256 207.847 66.8256 207.54C66.8256 207.244 66.7603 206.987 66.6296 206.768C66.4989 206.55 66.3143 206.379 66.0756 206.257C65.8398 206.135 65.5614 206.074 65.2404 206.074C64.9393 206.074 64.6552 206.129 64.3881 206.24C64.1239 206.348 63.908 206.506 63.7404 206.713C63.5728 206.918 63.4819 207.165 63.4677 207.455H62.445C62.462 206.997 62.5998 206.597 62.8583 206.253C63.1168 205.906 63.4549 205.636 63.8725 205.443C64.293 205.25 64.7546 205.153 65.2575 205.153C65.7972 205.153 66.2603 205.263 66.6467 205.482C67.033 205.697 67.3299 205.983 67.5373 206.338C67.7447 206.693 67.8484 207.077 67.8484 207.489C67.8484 207.98 67.7191 208.399 67.4606 208.746C67.2049 209.092 66.8569 209.332 66.4165 209.466V209.534C66.9677 209.625 67.3981 209.859 67.7077 210.237C68.0174 210.612 68.1722 211.077 68.1722 211.631C68.1722 212.105 68.043 212.531 67.7844 212.909C67.5288 213.284 67.1793 213.58 66.7362 213.795C66.293 214.011 65.7887 214.119 65.2234 214.119Z" fill="white"/>
<path d="M321.088 237V230.455H322.06V231.443H322.128C322.248 231.119 322.463 230.857 322.776 230.655C323.088 230.453 323.441 230.352 323.833 230.352C323.907 230.352 323.999 230.354 324.11 230.357C324.221 230.359 324.304 230.364 324.361 230.369V231.392C324.327 231.384 324.249 231.371 324.127 231.354C324.007 231.334 323.881 231.324 323.748 231.324C323.429 231.324 323.145 231.391 322.895 231.524C322.648 231.655 322.452 231.837 322.307 232.07C322.165 232.3 322.094 232.562 322.094 232.858V237H321.088ZM328.098 237.136C327.468 237.136 326.924 236.997 326.466 236.719C326.012 236.438 325.661 236.045 325.414 235.543C325.169 235.037 325.047 234.449 325.047 233.778C325.047 233.108 325.169 232.517 325.414 232.006C325.661 231.491 326.005 231.091 326.445 230.804C326.888 230.514 327.405 230.369 327.996 230.369C328.337 230.369 328.674 230.426 329.006 230.54C329.338 230.653 329.641 230.838 329.914 231.094C330.186 231.347 330.404 231.682 330.566 232.099C330.728 232.517 330.809 233.031 330.809 233.642V234.068H325.763V233.199H329.786C329.786 232.83 329.712 232.5 329.564 232.21C329.419 231.92 329.212 231.692 328.942 231.524C328.675 231.357 328.36 231.273 327.996 231.273C327.596 231.273 327.249 231.372 326.956 231.571C326.667 231.767 326.444 232.023 326.287 232.338C326.131 232.653 326.053 232.991 326.053 233.352V233.932C326.053 234.426 326.138 234.845 326.309 235.189C326.482 235.53 326.722 235.79 327.029 235.969C327.336 236.145 327.692 236.233 328.098 236.233C328.363 236.233 328.601 236.196 328.814 236.122C329.03 236.045 329.216 235.932 329.373 235.781C329.529 235.628 329.65 235.437 329.735 235.21L330.706 235.483C330.604 235.812 330.432 236.102 330.191 236.352C329.949 236.599 329.651 236.793 329.296 236.932C328.941 237.068 328.542 237.136 328.098 237.136ZM332.338 239.455V230.455H333.31V231.494H333.429C333.503 231.381 333.605 231.236 333.736 231.06C333.87 230.881 334.06 230.722 334.307 230.582C334.557 230.44 334.895 230.369 335.321 230.369C335.873 230.369 336.358 230.507 336.779 230.783C337.199 231.058 337.527 231.449 337.763 231.955C337.999 232.46 338.117 233.057 338.117 233.744C338.117 234.438 337.999 235.038 337.763 235.547C337.527 236.053 337.201 236.445 336.783 236.723C336.365 236.999 335.884 237.136 335.338 237.136C334.918 237.136 334.581 237.067 334.328 236.928C334.076 236.786 333.881 236.625 333.745 236.446C333.608 236.264 333.503 236.114 333.429 235.994H333.344V239.455H332.338ZM333.327 233.727C333.327 234.222 333.4 234.658 333.544 235.036C333.689 235.411 333.901 235.705 334.179 235.918C334.458 236.128 334.799 236.233 335.202 236.233C335.623 236.233 335.973 236.122 336.255 235.901C336.539 235.676 336.752 235.375 336.894 234.997C337.039 234.616 337.111 234.193 337.111 233.727C337.111 233.267 337.04 232.852 336.898 232.483C336.759 232.111 336.547 231.817 336.263 231.601C335.982 231.382 335.628 231.273 335.202 231.273C334.793 231.273 334.449 231.376 334.171 231.584C333.892 231.788 333.682 232.075 333.54 232.445C333.398 232.811 333.327 233.239 333.327 233.727ZM344.287 231.92L343.384 232.176C343.327 232.026 343.243 231.879 343.132 231.737C343.025 231.592 342.877 231.473 342.689 231.379C342.502 231.286 342.262 231.239 341.969 231.239C341.569 231.239 341.235 231.331 340.968 231.516C340.703 231.697 340.571 231.929 340.571 232.21C340.571 232.46 340.662 232.658 340.844 232.803C341.026 232.947 341.31 233.068 341.696 233.165L342.668 233.403C343.253 233.545 343.689 233.763 343.976 234.055C344.263 234.345 344.407 234.719 344.407 235.176C344.407 235.551 344.299 235.886 344.083 236.182C343.87 236.477 343.571 236.71 343.188 236.881C342.804 237.051 342.358 237.136 341.85 237.136C341.182 237.136 340.63 236.991 340.192 236.702C339.755 236.412 339.478 235.989 339.361 235.432L340.316 235.193C340.407 235.545 340.578 235.81 340.831 235.986C341.087 236.162 341.421 236.25 341.833 236.25C342.301 236.25 342.674 236.151 342.949 235.952C343.228 235.75 343.367 235.509 343.367 235.227C343.367 235 343.287 234.81 343.128 234.656C342.969 234.5 342.725 234.384 342.395 234.307L341.304 234.051C340.705 233.909 340.265 233.689 339.983 233.391C339.705 233.089 339.566 232.713 339.566 232.261C339.566 231.892 339.669 231.565 339.877 231.281C340.087 230.997 340.373 230.774 340.733 230.612C341.097 230.45 341.509 230.369 341.969 230.369C342.617 230.369 343.125 230.511 343.495 230.795C343.867 231.08 344.131 231.455 344.287 231.92Z" fill="white"/>
<rect x="283.01" y="223" width="29" height="21" rx="5" fill="#1C1C1C"/>
<path d="M297.48 238.119C296.98 238.119 296.53 238.02 296.129 237.821C295.729 237.622 295.408 237.349 295.166 237.003C294.925 236.656 294.793 236.261 294.77 235.818H295.793C295.833 236.213 296.012 236.54 296.33 236.798C296.651 237.054 297.034 237.182 297.48 237.182C297.838 237.182 298.156 237.098 298.435 236.93C298.716 236.763 298.936 236.533 299.095 236.24C299.257 235.945 299.338 235.611 299.338 235.239C299.338 234.858 299.254 234.518 299.087 234.22C298.922 233.919 298.695 233.682 298.405 233.509C298.115 233.335 297.784 233.247 297.412 233.244C297.145 233.241 296.871 233.283 296.59 233.368C296.308 233.45 296.077 233.557 295.895 233.688L294.906 233.568L295.435 229.273H299.969V230.21H296.321L296.014 232.784H296.066C296.244 232.642 296.469 232.524 296.739 232.43C297.009 232.337 297.29 232.29 297.583 232.29C298.117 232.29 298.593 232.418 299.01 232.673C299.431 232.926 299.76 233.273 299.999 233.713C300.24 234.153 300.361 234.656 300.361 235.222C300.361 235.778 300.236 236.276 299.986 236.713C299.739 237.148 299.398 237.491 298.963 237.744C298.529 237.994 298.034 238.119 297.48 238.119Z" fill="#757575"/>
<path d="M44.8295 231.455C44.7784 231.023 44.571 230.688 44.2074 230.449C43.8438 230.21 43.3977 230.091 42.8693 230.091C42.483 230.091 42.1449 230.153 41.8551 230.278C41.5682 230.403 41.3438 230.575 41.1818 230.794C41.0227 231.013 40.9432 231.261 40.9432 231.54C40.9432 231.773 40.9986 231.973 41.1094 232.141C41.223 232.305 41.3679 232.443 41.544 232.554C41.7202 232.662 41.9048 232.751 42.098 232.822C42.2912 232.891 42.4688 232.946 42.6307 232.989L43.517 233.227C43.7443 233.287 43.9972 233.369 44.2756 233.474C44.5568 233.58 44.8253 233.723 45.081 233.905C45.3395 234.084 45.5526 234.314 45.7202 234.595C45.8878 234.876 45.9716 235.222 45.9716 235.631C45.9716 236.102 45.848 236.528 45.6009 236.909C45.3565 237.29 44.9986 237.592 44.527 237.817C44.0582 238.041 43.4886 238.153 42.8182 238.153C42.1932 238.153 41.652 238.053 41.1946 237.851C40.7401 237.649 40.3821 237.368 40.1207 237.007C39.8622 236.646 39.7159 236.227 39.6818 235.75H40.7727C40.8011 236.08 40.9119 236.352 41.1051 236.568C41.3011 236.781 41.5483 236.94 41.8466 237.045C42.1477 237.148 42.4716 237.199 42.8182 237.199C43.2216 237.199 43.5838 237.134 43.9048 237.003C44.2259 236.869 44.4801 236.685 44.6676 236.449C44.8551 236.21 44.9489 235.932 44.9489 235.614C44.9489 235.324 44.8679 235.088 44.706 234.906C44.544 234.724 44.331 234.577 44.0668 234.463C43.8026 234.349 43.517 234.25 43.2102 234.165L42.1364 233.858C41.4545 233.662 40.9148 233.382 40.517 233.018C40.1193 232.655 39.9205 232.179 39.9205 231.591C39.9205 231.102 40.0526 230.676 40.3168 230.312C40.5838 229.946 40.9418 229.662 41.3906 229.46C41.8423 229.256 42.3466 229.153 42.9034 229.153C43.4659 229.153 43.9659 229.254 44.4034 229.456C44.8409 229.655 45.1875 229.928 45.4432 230.274C45.7017 230.621 45.8381 231.014 45.8523 231.455H44.8295ZM50.3171 238.136C49.6864 238.136 49.1424 237.997 48.685 237.719C48.2305 237.438 47.8796 237.045 47.6325 236.543C47.3881 236.037 47.266 235.449 47.266 234.778C47.266 234.108 47.3881 233.517 47.6325 233.006C47.8796 232.491 48.2234 232.091 48.6637 231.804C49.1069 231.514 49.6239 231.369 50.2148 231.369C50.5558 231.369 50.8924 231.426 51.2248 231.54C51.5572 231.653 51.8597 231.838 52.1325 232.094C52.4052 232.347 52.6225 232.682 52.7844 233.099C52.9464 233.517 53.0273 234.031 53.0273 234.642V235.068H47.9819V234.199H52.0046C52.0046 233.83 51.9308 233.5 51.783 233.21C51.6381 232.92 51.4308 232.692 51.1609 232.524C50.8938 232.357 50.5785 232.273 50.2148 232.273C49.8143 232.273 49.4677 232.372 49.1751 232.571C48.8853 232.767 48.6623 233.023 48.506 233.338C48.3498 233.653 48.2717 233.991 48.2717 234.352V234.932C48.2717 235.426 48.3569 235.845 48.5273 236.189C48.7006 236.53 48.9407 236.79 49.2475 236.969C49.5543 237.145 49.9109 237.233 50.3171 237.233C50.5813 237.233 50.82 237.196 51.033 237.122C51.2489 237.045 51.435 236.932 51.5913 236.781C51.7475 236.628 51.8683 236.437 51.9535 236.21L52.9251 236.483C52.8228 236.812 52.6509 237.102 52.4094 237.352C52.168 237.599 51.8697 237.793 51.5146 237.932C51.1594 238.068 50.7603 238.136 50.3171 238.136ZM57.4038 231.455V232.307H54.0117V231.455H57.4038ZM55.0004 229.886H56.006V236.125C56.006 236.409 56.0472 236.622 56.1296 236.764C56.2148 236.903 56.3228 236.997 56.4535 237.045C56.587 237.091 56.7276 237.114 56.8754 237.114C56.9862 237.114 57.0771 237.108 57.1481 237.097C57.2191 237.082 57.2759 237.071 57.3185 237.062L57.5231 237.966C57.4549 237.991 57.3597 238.017 57.2376 238.043C57.1154 238.071 56.9606 238.085 56.7731 238.085C56.489 238.085 56.2106 238.024 55.9379 237.902C55.668 237.78 55.4435 237.594 55.2646 237.344C55.0884 237.094 55.0004 236.778 55.0004 236.398V229.886ZM62.07 236.21V235.341L65.9052 229.273H66.5359V230.619H66.1097L63.212 235.205V235.273H68.3768V236.21H62.07ZM66.1779 238V235.946V235.541V229.273H67.1836V238H66.1779Z" fill="white"/>
<path d="M321.088 261V254.455H322.06V255.443H322.128C322.248 255.119 322.463 254.857 322.776 254.655C323.088 254.453 323.441 254.352 323.833 254.352C323.907 254.352 323.999 254.354 324.11 254.357C324.221 254.359 324.304 254.364 324.361 254.369V255.392C324.327 255.384 324.249 255.371 324.127 255.354C324.007 255.334 323.881 255.324 323.748 255.324C323.429 255.324 323.145 255.391 322.895 255.524C322.648 255.655 322.452 255.837 322.307 256.07C322.165 256.3 322.094 256.562 322.094 256.858V261H321.088ZM328.098 261.136C327.468 261.136 326.924 260.997 326.466 260.719C326.012 260.438 325.661 260.045 325.414 259.543C325.169 259.037 325.047 258.449 325.047 257.778C325.047 257.108 325.169 256.517 325.414 256.006C325.661 255.491 326.005 255.091 326.445 254.804C326.888 254.514 327.405 254.369 327.996 254.369C328.337 254.369 328.674 254.426 329.006 254.54C329.338 254.653 329.641 254.838 329.914 255.094C330.186 255.347 330.404 255.682 330.566 256.099C330.728 256.517 330.809 257.031 330.809 257.642V258.068H325.763V257.199H329.786C329.786 256.83 329.712 256.5 329.564 256.21C329.419 255.92 329.212 255.692 328.942 255.524C328.675 255.357 328.36 255.273 327.996 255.273C327.596 255.273 327.249 255.372 326.956 255.571C326.667 255.767 326.444 256.023 326.287 256.338C326.131 256.653 326.053 256.991 326.053 257.352V257.932C326.053 258.426 326.138 258.845 326.309 259.189C326.482 259.53 326.722 259.79 327.029 259.969C327.336 260.145 327.692 260.233 328.098 260.233C328.363 260.233 328.601 260.196 328.814 260.122C329.03 260.045 329.216 259.932 329.373 259.781C329.529 259.628 329.65 259.437 329.735 259.21L330.706 259.483C330.604 259.812 330.432 260.102 330.191 260.352C329.949 260.599 329.651 260.793 329.296 260.932C328.941 261.068 328.542 261.136 328.098 261.136ZM332.338 263.455V254.455H333.31V255.494H333.429C333.503 255.381 333.605 255.236 333.736 255.06C333.87 254.881 334.06 254.722 334.307 254.582C334.557 254.44 334.895 254.369 335.321 254.369C335.873 254.369 336.358 254.507 336.779 254.783C337.199 255.058 337.527 255.449 337.763 255.955C337.999 256.46 338.117 257.057 338.117 257.744C338.117 258.438 337.999 259.038 337.763 259.547C337.527 260.053 337.201 260.445 336.783 260.723C336.365 260.999 335.884 261.136 335.338 261.136C334.918 261.136 334.581 261.067 334.328 260.928C334.076 260.786 333.881 260.625 333.745 260.446C333.608 260.264 333.503 260.114 333.429 259.994H333.344V263.455H332.338ZM333.327 257.727C333.327 258.222 333.4 258.658 333.544 259.036C333.689 259.411 333.901 259.705 334.179 259.918C334.458 260.128 334.799 260.233 335.202 260.233C335.623 260.233 335.973 260.122 336.255 259.901C336.539 259.676 336.752 259.375 336.894 258.997C337.039 258.616 337.111 258.193 337.111 257.727C337.111 257.267 337.04 256.852 336.898 256.483C336.759 256.111 336.547 255.817 336.263 255.601C335.982 255.382 335.628 255.273 335.202 255.273C334.793 255.273 334.449 255.376 334.171 255.584C333.892 255.788 333.682 256.075 333.54 256.445C333.398 256.811 333.327 257.239 333.327 257.727ZM344.287 255.92L343.384 256.176C343.327 256.026 343.243 255.879 343.132 255.737C343.025 255.592 342.877 255.473 342.689 255.379C342.502 255.286 342.262 255.239 341.969 255.239C341.569 255.239 341.235 255.331 340.968 255.516C340.703 255.697 340.571 255.929 340.571 256.21C340.571 256.46 340.662 256.658 340.844 256.803C341.026 256.947 341.31 257.068 341.696 257.165L342.668 257.403C343.253 257.545 343.689 257.763 343.976 258.055C344.263 258.345 344.407 258.719 344.407 259.176C344.407 259.551 344.299 259.886 344.083 260.182C343.87 260.477 343.571 260.71 343.188 260.881C342.804 261.051 342.358 261.136 341.85 261.136C341.182 261.136 340.63 260.991 340.192 260.702C339.755 260.412 339.478 259.989 339.361 259.432L340.316 259.193C340.407 259.545 340.578 259.81 340.831 259.986C341.087 260.162 341.421 260.25 341.833 260.25C342.301 260.25 342.674 260.151 342.949 259.952C343.228 259.75 343.367 259.509 343.367 259.227C343.367 259 343.287 258.81 343.128 258.656C342.969 258.5 342.725 258.384 342.395 258.307L341.304 258.051C340.705 257.909 340.265 257.689 339.983 257.391C339.705 257.089 339.566 256.713 339.566 256.261C339.566 255.892 339.669 255.565 339.877 255.281C340.087 254.997 340.373 254.774 340.733 254.612C341.097 254.45 341.509 254.369 341.969 254.369C342.617 254.369 343.125 254.511 343.495 254.795C343.867 255.08 344.131 255.455 344.287 255.92Z" fill="white"/>
<rect x="283.01" y="247" width="29" height="21" rx="5" fill="#1C1C1C"/>
<path d="M297.48 262.119C296.98 262.119 296.53 262.02 296.129 261.821C295.729 261.622 295.408 261.349 295.166 261.003C294.925 260.656 294.793 260.261 294.77 259.818H295.793C295.833 260.213 296.012 260.54 296.33 260.798C296.651 261.054 297.034 261.182 297.48 261.182C297.838 261.182 298.156 261.098 298.435 260.93C298.716 260.763 298.936 260.533 299.095 260.24C299.257 259.945 299.338 259.611 299.338 259.239C299.338 258.858 299.254 258.518 299.087 258.22C298.922 257.919 298.695 257.682 298.405 257.509C298.115 257.335 297.784 257.247 297.412 257.244C297.145 257.241 296.871 257.283 296.59 257.368C296.308 257.45 296.077 257.557 295.895 257.688L294.906 257.568L295.435 253.273H299.969V254.21H296.321L296.014 256.784H296.066C296.244 256.642 296.469 256.524 296.739 256.43C297.009 256.337 297.29 256.29 297.583 256.29C298.117 256.29 298.593 256.418 299.01 256.673C299.431 256.926 299.76 257.273 299.999 257.713C300.24 258.153 300.361 258.656 300.361 259.222C300.361 259.778 300.236 260.276 299.986 260.713C299.739 261.148 299.398 261.491 298.963 261.744C298.529 261.994 298.034 262.119 297.48 262.119Z" fill="#757575"/>
<path d="M44.8295 255.455C44.7784 255.023 44.571 254.688 44.2074 254.449C43.8438 254.21 43.3977 254.091 42.8693 254.091C42.483 254.091 42.1449 254.153 41.8551 254.278C41.5682 254.403 41.3438 254.575 41.1818 254.794C41.0227 255.013 40.9432 255.261 40.9432 255.54C40.9432 255.773 40.9986 255.973 41.1094 256.141C41.223 256.305 41.3679 256.443 41.544 256.554C41.7202 256.662 41.9048 256.751 42.098 256.822C42.2912 256.891 42.4688 256.946 42.6307 256.989L43.517 257.227C43.7443 257.287 43.9972 257.369 44.2756 257.474C44.5568 257.58 44.8253 257.723 45.081 257.905C45.3395 258.084 45.5526 258.314 45.7202 258.595C45.8878 258.876 45.9716 259.222 45.9716 259.631C45.9716 260.102 45.848 260.528 45.6009 260.909C45.3565 261.29 44.9986 261.592 44.527 261.817C44.0582 262.041 43.4886 262.153 42.8182 262.153C42.1932 262.153 41.652 262.053 41.1946 261.851C40.7401 261.649 40.3821 261.368 40.1207 261.007C39.8622 260.646 39.7159 260.227 39.6818 259.75H40.7727C40.8011 260.08 40.9119 260.352 41.1051 260.568C41.3011 260.781 41.5483 260.94 41.8466 261.045C42.1477 261.148 42.4716 261.199 42.8182 261.199C43.2216 261.199 43.5838 261.134 43.9048 261.003C44.2259 260.869 44.4801 260.685 44.6676 260.449C44.8551 260.21 44.9489 259.932 44.9489 259.614C44.9489 259.324 44.8679 259.088 44.706 258.906C44.544 258.724 44.331 258.577 44.0668 258.463C43.8026 258.349 43.517 258.25 43.2102 258.165L42.1364 257.858C41.4545 257.662 40.9148 257.382 40.517 257.018C40.1193 256.655 39.9205 256.179 39.9205 255.591C39.9205 255.102 40.0526 254.676 40.3168 254.312C40.5838 253.946 40.9418 253.662 41.3906 253.46C41.8423 253.256 42.3466 253.153 42.9034 253.153C43.4659 253.153 43.9659 253.254 44.4034 253.456C44.8409 253.655 45.1875 253.928 45.4432 254.274C45.7017 254.621 45.8381 255.014 45.8523 255.455H44.8295ZM50.3171 262.136C49.6864 262.136 49.1424 261.997 48.685 261.719C48.2305 261.438 47.8796 261.045 47.6325 260.543C47.3881 260.037 47.266 259.449 47.266 258.778C47.266 258.108 47.3881 257.517 47.6325 257.006C47.8796 256.491 48.2234 256.091 48.6637 255.804C49.1069 255.514 49.6239 255.369 50.2148 255.369C50.5558 255.369 50.8924 255.426 51.2248 255.54C51.5572 255.653 51.8597 255.838 52.1325 256.094C52.4052 256.347 52.6225 256.682 52.7844 257.099C52.9464 257.517 53.0273 258.031 53.0273 258.642V259.068H47.9819V258.199H52.0046C52.0046 257.83 51.9308 257.5 51.783 257.21C51.6381 256.92 51.4308 256.692 51.1609 256.524C50.8938 256.357 50.5785 256.273 50.2148 256.273C49.8143 256.273 49.4677 256.372 49.1751 256.571C48.8853 256.767 48.6623 257.023 48.506 257.338C48.3498 257.653 48.2717 257.991 48.2717 258.352V258.932C48.2717 259.426 48.3569 259.845 48.5273 260.189C48.7006 260.53 48.9407 260.79 49.2475 260.969C49.5543 261.145 49.9109 261.233 50.3171 261.233C50.5813 261.233 50.82 261.196 51.033 261.122C51.2489 261.045 51.435 260.932 51.5913 260.781C51.7475 260.628 51.8683 260.437 51.9535 260.21L52.9251 260.483C52.8228 260.812 52.6509 261.102 52.4094 261.352C52.168 261.599 51.8697 261.793 51.5146 261.932C51.1594 262.068 50.7603 262.136 50.3171 262.136ZM57.4038 255.455V256.307H54.0117V255.455H57.4038ZM55.0004 253.886H56.006V260.125C56.006 260.409 56.0472 260.622 56.1296 260.764C56.2148 260.903 56.3228 260.997 56.4535 261.045C56.587 261.091 56.7276 261.114 56.8754 261.114C56.9862 261.114 57.0771 261.108 57.1481 261.097C57.2191 261.082 57.2759 261.071 57.3185 261.062L57.5231 261.966C57.4549 261.991 57.3597 262.017 57.2376 262.043C57.1154 262.071 56.9606 262.085 56.7731 262.085C56.489 262.085 56.2106 262.024 55.9379 261.902C55.668 261.78 55.4435 261.594 55.2646 261.344C55.0884 261.094 55.0004 260.778 55.0004 260.398V253.886ZM65.0018 262.119C64.5018 262.119 64.0515 262.02 63.6509 261.821C63.2504 261.622 62.9293 261.349 62.6879 261.003C62.4464 260.656 62.3143 260.261 62.2915 259.818H63.3143C63.354 260.213 63.533 260.54 63.8512 260.798C64.1722 261.054 64.5558 261.182 65.0018 261.182C65.3597 261.182 65.6779 261.098 65.9563 260.93C66.2376 260.763 66.4577 260.533 66.6168 260.24C66.7788 259.945 66.8597 259.611 66.8597 259.239C66.8597 258.858 66.7759 258.518 66.6083 258.22C66.4435 257.919 66.2163 257.682 65.9265 257.509C65.6367 257.335 65.3058 257.247 64.9336 257.244C64.6665 257.241 64.3924 257.283 64.1112 257.368C63.8299 257.45 63.5984 257.557 63.4165 257.688L62.4279 257.568L62.9563 253.273H67.4904V254.21H63.8427L63.5359 256.784H63.587C63.766 256.642 63.9904 256.524 64.2603 256.43C64.5302 256.337 64.8114 256.29 65.104 256.29C65.6381 256.29 66.114 256.418 66.5316 256.673C66.9521 256.926 67.2816 257.273 67.5202 257.713C67.7617 258.153 67.8825 258.656 67.8825 259.222C67.8825 259.778 67.7575 260.276 67.5075 260.713C67.2603 261.148 66.9194 261.491 66.4847 261.744C66.0501 261.994 65.5558 262.119 65.0018 262.119Z" fill="white"/>
<path d="M48.4261 129H47.1932C47.1203 128.645 46.9927 128.334 46.8104 128.065C46.6314 127.797 46.4126 127.571 46.1541 127.389C45.8989 127.204 45.6155 127.064 45.304 126.972C44.9924 126.879 44.6676 126.832 44.3295 126.832C43.7131 126.832 43.1546 126.988 42.6541 127.3C42.157 127.611 41.7609 128.07 41.4659 128.677C41.1742 129.283 41.0284 130.027 41.0284 130.909C41.0284 131.791 41.1742 132.535 41.4659 133.141C41.7609 133.748 42.157 134.207 42.6541 134.518C43.1546 134.83 43.7131 134.986 44.3295 134.986C44.6676 134.986 44.9924 134.939 45.304 134.847C45.6155 134.754 45.8989 134.616 46.1541 134.434C46.4126 134.248 46.6314 134.021 46.8104 133.753C46.9927 133.481 47.1203 133.17 47.1932 132.818H48.4261C48.3333 133.339 48.1643 133.804 47.919 134.215C47.6738 134.626 47.3688 134.976 47.0043 135.264C46.6397 135.549 46.2304 135.766 45.7763 135.915C45.3255 136.065 44.8433 136.139 44.3295 136.139C43.4612 136.139 42.6889 135.927 42.0128 135.503C41.3366 135.079 40.8047 134.475 40.4169 133.693C40.0291 132.911 39.8352 131.983 39.8352 130.909C39.8352 129.835 40.0291 128.907 40.4169 128.125C40.8047 127.343 41.3366 126.74 42.0128 126.315C42.6889 125.891 43.4612 125.679 44.3295 125.679C44.8433 125.679 45.3255 125.754 45.7763 125.903C46.2304 126.052 46.6397 126.271 47.0043 126.559C47.3688 126.844 47.6738 127.192 47.919 127.603C48.1643 128.011 48.3333 128.476 48.4261 129ZM51.4327 131.406V136H50.2594V125.818H51.4327V129.557H51.5321C51.7111 129.162 51.9796 128.849 52.3375 128.617C52.6988 128.382 53.1794 128.264 53.7793 128.264C54.2997 128.264 54.7554 128.369 55.1465 128.577C55.5376 128.783 55.8409 129.099 56.0563 129.527C56.275 129.951 56.3844 130.491 56.3844 131.148V136H55.2111V131.227C55.2111 130.621 55.0537 130.152 54.7388 129.82C54.4273 129.486 53.9947 129.318 53.4412 129.318C53.0568 129.318 52.7121 129.399 52.4071 129.562C52.1055 129.724 51.8669 129.961 51.6912 130.273C51.5189 130.584 51.4327 130.962 51.4327 131.406ZM60.7781 136.179C60.2942 136.179 59.855 136.088 59.4606 135.906C59.0662 135.72 58.753 135.453 58.521 135.105C58.2889 134.754 58.1729 134.33 58.1729 133.832C58.1729 133.395 58.2591 133.04 58.4315 132.768C58.6038 132.493 58.8342 132.278 59.1225 132.122C59.4109 131.966 59.729 131.85 60.0771 131.774C60.4284 131.695 60.7814 131.632 61.136 131.585C61.6 131.526 61.9762 131.481 62.2646 131.451C62.5562 131.418 62.7683 131.363 62.9009 131.287C63.0368 131.211 63.1048 131.078 63.1048 130.889V130.849C63.1048 130.359 62.9705 129.978 62.7021 129.706C62.4369 129.434 62.0342 129.298 61.494 129.298C60.9338 129.298 60.4947 129.421 60.1765 129.666C59.8583 129.911 59.6346 130.173 59.5053 130.452L58.3917 130.054C58.5906 129.59 58.8557 129.229 59.1871 128.97C59.5219 128.708 59.8865 128.526 60.2809 128.423C60.6786 128.317 61.0697 128.264 61.4542 128.264C61.6995 128.264 61.9812 128.294 62.2994 128.354C62.6209 128.41 62.9308 128.528 63.229 128.707C63.5307 128.886 63.7809 129.156 63.9798 129.517C64.1786 129.878 64.2781 130.362 64.2781 130.969V136H63.1048V134.966H63.0451C62.9656 135.132 62.833 135.309 62.6474 135.498C62.4618 135.687 62.2148 135.848 61.9066 135.98C61.5984 136.113 61.2222 136.179 60.7781 136.179ZM60.957 135.125C61.421 135.125 61.8121 135.034 62.1303 134.852C62.4518 134.669 62.6938 134.434 62.8562 134.146C63.0219 133.857 63.1048 133.554 63.1048 133.236V132.162C63.055 132.222 62.9457 132.276 62.7766 132.326C62.6109 132.372 62.4187 132.414 62.1999 132.45C61.9845 132.483 61.774 132.513 61.5685 132.54C61.3664 132.563 61.2023 132.583 61.0763 132.599C60.7714 132.639 60.4864 132.704 60.2212 132.793C59.9594 132.879 59.7473 133.01 59.5849 133.186C59.4258 133.358 59.3462 133.594 59.3462 133.892C59.3462 134.3 59.497 134.608 59.7987 134.817C60.1036 135.022 60.4897 135.125 60.957 135.125ZM67.5929 131.406V136H66.4196V128.364H67.5531V129.557H67.6525C67.8315 129.169 68.1033 128.857 68.4679 128.622C68.8324 128.384 69.3031 128.264 69.8798 128.264C70.3968 128.264 70.8493 128.37 71.237 128.582C71.6248 128.791 71.9264 129.109 72.1419 129.537C72.3573 129.961 72.465 130.498 72.465 131.148V136H71.2917V131.227C71.2917 130.627 71.1359 130.16 70.8244 129.825C70.5128 129.487 70.0853 129.318 69.5417 129.318C69.1672 129.318 68.8324 129.399 68.5375 129.562C68.2458 129.724 68.0154 129.961 67.8464 130.273C67.6774 130.584 67.5929 130.962 67.5929 131.406ZM77.6914 139.023C77.1246 139.023 76.6374 138.95 76.2298 138.804C75.8221 138.661 75.4824 138.473 75.2106 138.237C74.9421 138.005 74.7283 137.757 74.5692 137.491L75.5039 136.835C75.61 136.974 75.7442 137.134 75.9066 137.312C76.069 137.495 76.2911 137.652 76.5728 137.785C76.8578 137.921 77.2307 137.989 77.6914 137.989C78.3079 137.989 78.8166 137.839 79.2177 137.541C79.6187 137.243 79.8192 136.776 79.8192 136.139V134.588H79.7198C79.6336 134.727 79.511 134.9 79.3519 135.105C79.1961 135.307 78.9708 135.488 78.6758 135.647C78.3841 135.803 77.9897 135.881 77.4925 135.881C76.8761 135.881 76.3226 135.735 75.832 135.443C75.3448 135.152 74.9587 134.727 74.6737 134.17C74.3919 133.614 74.2511 132.937 74.2511 132.142C74.2511 131.36 74.3886 130.679 74.6637 130.099C74.9388 129.515 75.3216 129.065 75.8121 128.746C76.3027 128.425 76.8694 128.264 77.5124 128.264C78.0096 128.264 78.404 128.347 78.6957 128.513C78.9906 128.675 79.216 128.861 79.3718 129.07C79.5309 129.275 79.6535 129.444 79.7397 129.577H79.859V128.364H80.9925V136.219C80.9925 136.875 80.8434 137.409 80.5451 137.82C80.2501 138.234 79.8524 138.537 79.3519 138.729C78.8548 138.925 78.3013 139.023 77.6914 139.023ZM77.6516 134.827C78.1223 134.827 78.52 134.719 78.8448 134.504C79.1696 134.288 79.4165 133.978 79.5856 133.574C79.7546 133.17 79.8391 132.686 79.8391 132.122C79.8391 131.572 79.7563 131.086 79.5906 130.665C79.4248 130.245 79.1796 129.915 78.8548 129.676C78.5299 129.437 78.1289 129.318 77.6516 129.318C77.1545 129.318 76.7402 129.444 76.4087 129.696C76.0806 129.948 75.8337 130.286 75.668 130.71C75.5056 131.134 75.4244 131.605 75.4244 132.122C75.4244 132.652 75.5072 133.121 75.6729 133.529C75.842 133.933 76.0906 134.252 76.4187 134.484C76.7501 134.712 77.1611 134.827 77.6516 134.827ZM86.342 136.159C85.6062 136.159 84.9715 135.997 84.4379 135.672C83.9076 135.344 83.4982 134.886 83.2099 134.3C82.9248 133.71 82.7823 133.024 82.7823 132.241C82.7823 131.459 82.9248 130.77 83.2099 130.173C83.4982 129.573 83.8993 129.106 84.413 128.771C84.93 128.433 85.5333 128.264 86.2227 128.264C86.6204 128.264 87.0131 128.33 87.4009 128.463C87.7887 128.596 88.1417 128.811 88.4599 129.109C88.7781 129.404 89.0316 129.795 89.2205 130.283C89.4094 130.77 89.5039 131.37 89.5039 132.082V132.58H83.6175V131.565H88.3107C88.3107 131.134 88.2246 130.75 88.0522 130.412C87.8832 130.074 87.6412 129.807 87.3263 129.612C87.0148 129.416 86.6469 129.318 86.2227 129.318C85.7553 129.318 85.351 129.434 85.0096 129.666C84.6715 129.895 84.4113 130.193 84.229 130.561C84.0468 130.929 83.9556 131.323 83.9556 131.744V132.42C83.9556 132.997 84.055 133.486 84.2539 133.887C84.4561 134.285 84.7362 134.588 85.0941 134.797C85.4521 135.002 85.868 135.105 86.342 135.105C86.6502 135.105 86.9286 135.062 87.1772 134.976C87.4291 134.886 87.6462 134.754 87.8285 134.578C88.0108 134.399 88.1516 134.177 88.2511 133.912L89.3846 134.23C89.2653 134.615 89.0647 134.953 88.783 135.244C88.5013 135.533 88.1533 135.758 87.739 135.92C87.3247 136.08 86.859 136.159 86.342 136.159ZM95.2262 136V128.364H96.3597V129.517H96.4393C96.5785 129.139 96.8304 128.833 97.195 128.597C97.5595 128.362 97.9705 128.244 98.4279 128.244C98.5141 128.244 98.6218 128.246 98.7511 128.249C98.8803 128.253 98.9781 128.258 99.0444 128.264V129.457C99.0046 129.447 98.9135 129.433 98.771 129.413C98.6317 129.389 98.4843 129.378 98.3285 129.378C97.9573 129.378 97.6258 129.456 97.3342 129.612C97.0458 129.764 96.8171 129.976 96.6481 130.248C96.4824 130.516 96.3995 130.823 96.3995 131.168V136H95.2262ZM103.404 136.159C102.669 136.159 102.034 135.997 101.5 135.672C100.97 135.344 100.561 134.886 100.272 134.3C99.9873 133.71 99.8448 133.024 99.8448 132.241C99.8448 131.459 99.9873 130.77 100.272 130.173C100.561 129.573 100.962 129.106 101.475 128.771C101.993 128.433 102.596 128.264 103.285 128.264C103.683 128.264 104.076 128.33 104.463 128.463C104.851 128.596 105.204 128.811 105.522 129.109C105.841 129.404 106.094 129.795 106.283 130.283C106.472 130.77 106.566 131.37 106.566 132.082V132.58H100.68V131.565H105.373C105.373 131.134 105.287 130.75 105.115 130.412C104.946 130.074 104.704 129.807 104.389 129.612C104.077 129.416 103.709 129.318 103.285 129.318C102.818 129.318 102.413 129.434 102.072 129.666C101.734 129.895 101.474 130.193 101.292 130.561C101.109 130.929 101.018 131.323 101.018 131.744V132.42C101.018 132.997 101.118 133.486 101.316 133.887C101.519 134.285 101.799 134.588 102.157 134.797C102.515 135.002 102.931 135.105 103.404 135.105C103.713 135.105 103.991 135.062 104.24 134.976C104.492 134.886 104.709 134.754 104.891 134.578C105.073 134.399 105.214 134.177 105.314 133.912L106.447 134.23C106.328 134.615 106.127 134.953 105.846 135.244C105.564 135.533 105.216 135.758 104.801 135.92C104.387 136.08 103.922 136.159 103.404 136.159ZM108.351 138.864V128.364H109.485V129.577H109.624C109.71 129.444 109.829 129.275 109.982 129.07C110.138 128.861 110.36 128.675 110.648 128.513C110.94 128.347 111.334 128.264 111.831 128.264C112.474 128.264 113.041 128.425 113.532 128.746C114.022 129.068 114.405 129.524 114.68 130.114C114.955 130.704 115.093 131.4 115.093 132.202C115.093 133.01 114.955 133.711 114.68 134.305C114.405 134.895 114.024 135.352 113.537 135.677C113.049 135.998 112.488 136.159 111.851 136.159C111.361 136.159 110.968 136.078 110.673 135.915C110.378 135.75 110.151 135.562 109.992 135.354C109.833 135.142 109.71 134.966 109.624 134.827H109.525V138.864H108.351ZM109.505 132.182C109.505 132.759 109.589 133.267 109.758 133.708C109.927 134.146 110.174 134.489 110.499 134.737C110.824 134.982 111.221 135.105 111.692 135.105C112.183 135.105 112.592 134.976 112.92 134.717C113.252 134.455 113.5 134.104 113.666 133.663C113.835 133.219 113.919 132.725 113.919 132.182C113.919 131.645 113.837 131.161 113.671 130.73C113.508 130.296 113.261 129.953 112.93 129.701C112.602 129.446 112.189 129.318 111.692 129.318C111.215 129.318 110.814 129.439 110.489 129.681C110.164 129.92 109.919 130.254 109.753 130.685C109.587 131.113 109.505 131.612 109.505 132.182ZM122.292 130.074L121.238 130.372C121.171 130.196 121.074 130.026 120.944 129.86C120.818 129.691 120.646 129.552 120.427 129.442C120.208 129.333 119.928 129.278 119.587 129.278C119.12 129.278 118.73 129.386 118.419 129.602C118.11 129.814 117.956 130.084 117.956 130.412C117.956 130.704 118.062 130.934 118.275 131.103C118.487 131.272 118.818 131.413 119.269 131.526L120.402 131.804C121.085 131.97 121.594 132.223 121.929 132.565C122.263 132.903 122.431 133.339 122.431 133.872C122.431 134.31 122.305 134.701 122.053 135.045C121.804 135.39 121.456 135.662 121.009 135.861C120.561 136.06 120.041 136.159 119.448 136.159C118.669 136.159 118.024 135.99 117.514 135.652C117.003 135.314 116.68 134.82 116.544 134.17L117.658 133.892C117.764 134.303 117.965 134.611 118.26 134.817C118.558 135.022 118.947 135.125 119.428 135.125C119.975 135.125 120.409 135.009 120.73 134.777C121.055 134.542 121.218 134.26 121.218 133.932C121.218 133.667 121.125 133.445 120.939 133.266C120.754 133.083 120.469 132.947 120.084 132.858L118.811 132.56C118.112 132.394 117.598 132.137 117.27 131.789C116.945 131.438 116.783 130.999 116.783 130.472C116.783 130.041 116.904 129.66 117.146 129.328C117.391 128.997 117.724 128.737 118.145 128.548C118.569 128.359 119.05 128.264 119.587 128.264C120.343 128.264 120.936 128.43 121.367 128.761C121.801 129.093 122.109 129.53 122.292 130.074ZM128.134 138.864V128.364H129.268V129.577H129.407C129.493 129.444 129.613 129.275 129.765 129.07C129.921 128.861 130.143 128.675 130.431 128.513C130.723 128.347 131.117 128.264 131.615 128.264C132.258 128.264 132.824 128.425 133.315 128.746C133.805 129.068 134.188 129.524 134.463 130.114C134.738 130.704 134.876 131.4 134.876 132.202C134.876 133.01 134.738 133.711 134.463 134.305C134.188 134.895 133.807 135.352 133.32 135.677C132.833 135.998 132.271 136.159 131.634 136.159C131.144 136.159 130.751 136.078 130.456 135.915C130.161 135.75 129.934 135.562 129.775 135.354C129.616 135.142 129.493 134.966 129.407 134.827H129.308V138.864H128.134ZM129.288 132.182C129.288 132.759 129.372 133.267 129.541 133.708C129.71 134.146 129.957 134.489 130.282 134.737C130.607 134.982 131.005 135.105 131.475 135.105C131.966 135.105 132.375 134.976 132.703 134.717C133.035 134.455 133.283 134.104 133.449 133.663C133.618 133.219 133.703 132.725 133.703 132.182C133.703 131.645 133.62 131.161 133.454 130.73C133.292 130.296 133.045 129.953 132.713 129.701C132.385 129.446 131.972 129.318 131.475 129.318C130.998 129.318 130.597 129.439 130.272 129.681C129.947 129.92 129.702 130.254 129.536 130.685C129.371 131.113 129.288 131.612 129.288 132.182ZM139.867 136.159C139.132 136.159 138.497 135.997 137.963 135.672C137.433 135.344 137.024 134.886 136.735 134.3C136.45 133.71 136.308 133.024 136.308 132.241C136.308 131.459 136.45 130.77 136.735 130.173C137.024 129.573 137.425 129.106 137.938 128.771C138.455 128.433 139.059 128.264 139.748 128.264C140.146 128.264 140.539 128.33 140.926 128.463C141.314 128.596 141.667 128.811 141.985 129.109C142.303 129.404 142.557 129.795 142.746 130.283C142.935 130.77 143.029 131.37 143.029 132.082V132.58H137.143V131.565H141.836C141.836 131.134 141.75 130.75 141.578 130.412C141.409 130.074 141.167 129.807 140.852 129.612C140.54 129.416 140.172 129.318 139.748 129.318C139.281 129.318 138.876 129.434 138.535 129.666C138.197 129.895 137.937 130.193 137.754 130.561C137.572 130.929 137.481 131.323 137.481 131.744V132.42C137.481 132.997 137.58 133.486 137.779 133.887C137.981 134.285 138.262 134.588 138.619 134.797C138.977 135.002 139.393 135.105 139.867 135.105C140.176 135.105 140.454 135.062 140.703 134.976C140.954 134.886 141.172 134.754 141.354 134.578C141.536 134.399 141.677 134.177 141.776 133.912L142.91 134.23C142.791 134.615 142.59 134.953 142.308 135.244C142.027 135.533 141.679 135.758 141.264 135.92C140.85 136.08 140.384 136.159 139.867 136.159ZM144.814 136V128.364H145.948V129.517H146.027C146.166 129.139 146.418 128.833 146.783 128.597C147.147 128.362 147.558 128.244 148.016 128.244C148.102 128.244 148.21 128.246 148.339 128.249C148.468 128.253 148.566 128.258 148.632 128.264V129.457C148.593 129.447 148.501 129.433 148.359 129.413C148.22 129.389 148.072 129.378 147.916 129.378C147.545 129.378 147.214 129.456 146.922 129.612C146.634 129.764 146.405 129.976 146.236 130.248C146.07 130.516 145.987 130.823 145.987 131.168V136H144.814ZM159.37 130.074L158.316 130.372C158.249 130.196 158.152 130.026 158.022 129.86C157.896 129.691 157.724 129.552 157.505 129.442C157.287 129.333 157.007 129.278 156.665 129.278C156.198 129.278 155.808 129.386 155.497 129.602C155.189 129.814 155.034 130.084 155.034 130.412C155.034 130.704 155.141 130.934 155.353 131.103C155.565 131.272 155.896 131.413 156.347 131.526L157.48 131.804C158.163 131.97 158.672 132.223 159.007 132.565C159.342 132.903 159.509 133.339 159.509 133.872C159.509 134.31 159.383 134.701 159.131 135.045C158.882 135.39 158.534 135.662 158.087 135.861C157.64 136.06 157.119 136.159 156.526 136.159C155.747 136.159 155.102 135.99 154.592 135.652C154.082 135.314 153.758 134.82 153.623 134.17L154.736 133.892C154.842 134.303 155.043 134.611 155.338 134.817C155.636 135.022 156.025 135.125 156.506 135.125C157.053 135.125 157.487 135.009 157.809 134.777C158.133 134.542 158.296 134.26 158.296 133.932C158.296 133.667 158.203 133.445 158.017 133.266C157.832 133.083 157.547 132.947 157.162 132.858L155.89 132.56C155.19 132.394 154.676 132.137 154.348 131.789C154.024 131.438 153.861 130.999 153.861 130.472C153.861 130.041 153.982 129.66 154.224 129.328C154.469 128.997 154.802 128.737 155.223 128.548C155.648 128.359 156.128 128.264 156.665 128.264C157.421 128.264 158.014 128.43 158.445 128.761C158.879 129.093 159.187 129.53 159.37 130.074ZM164.477 136.159C163.741 136.159 163.106 135.997 162.573 135.672C162.042 135.344 161.633 134.886 161.345 134.3C161.06 133.71 160.917 133.024 160.917 132.241C160.917 131.459 161.06 130.77 161.345 130.173C161.633 129.573 162.034 129.106 162.548 128.771C163.065 128.433 163.668 128.264 164.357 128.264C164.755 128.264 165.148 128.33 165.536 128.463C165.923 128.596 166.276 128.811 166.595 129.109C166.913 129.404 167.166 129.795 167.355 130.283C167.544 130.77 167.639 131.37 167.639 132.082V132.58H161.752V131.565H166.445C166.445 131.134 166.359 130.75 166.187 130.412C166.018 130.074 165.776 129.807 165.461 129.612C165.15 129.416 164.782 129.318 164.357 129.318C163.89 129.318 163.486 129.434 163.144 129.666C162.806 129.895 162.546 130.193 162.364 130.561C162.182 130.929 162.09 131.323 162.09 131.744V132.42C162.09 132.997 162.19 133.486 162.389 133.887C162.591 134.285 162.871 134.588 163.229 134.797C163.587 135.002 164.003 135.105 164.477 135.105C164.785 135.105 165.063 135.062 165.312 134.976C165.564 134.886 165.781 134.754 165.963 134.578C166.146 134.399 166.286 134.177 166.386 133.912L167.519 134.23C167.4 134.615 167.2 134.953 166.918 135.244C166.636 135.533 166.288 135.758 165.874 135.92C165.459 136.08 164.994 136.159 164.477 136.159ZM172.744 128.364V129.358H168.787V128.364H172.744ZM169.941 126.534H171.114V133.812C171.114 134.144 171.162 134.393 171.258 134.558C171.357 134.721 171.483 134.83 171.636 134.886C171.792 134.939 171.956 134.966 172.128 134.966C172.257 134.966 172.363 134.959 172.446 134.946C172.529 134.929 172.595 134.916 172.645 134.906L172.884 135.96C172.804 135.99 172.693 136.02 172.551 136.05C172.408 136.083 172.227 136.099 172.009 136.099C171.677 136.099 171.352 136.028 171.034 135.886C170.719 135.743 170.458 135.526 170.249 135.234C170.043 134.943 169.941 134.575 169.941 134.131V126.534Z" fill="white"/>
<line x1="39" y1="112.5" x2="345" y2="112.5" stroke="#757575"/>
<path d="M149.567 27V12.4545H159.028V14.6634H152.202V18.6122H158.538V20.821H152.202V24.7912H159.085V27H149.567ZM165.651 27.1918C164.794 27.1918 164.027 26.9716 163.349 26.5312C162.672 26.0909 162.137 25.4517 161.744 24.6136C161.351 23.7756 161.155 22.7576 161.155 21.5597C161.155 20.3475 161.354 19.3248 161.751 18.4915C162.154 17.6534 162.696 17.0213 163.378 16.5952C164.06 16.1643 164.82 15.9489 165.658 15.9489C166.297 15.9489 166.822 16.0578 167.234 16.2756C167.646 16.4886 167.973 16.7467 168.214 17.0497C168.456 17.348 168.643 17.6297 168.776 17.8949H168.882V12.4545H171.46V27H168.932V25.2812H168.776C168.643 25.5464 168.451 25.8281 168.2 26.1264C167.949 26.42 167.618 26.6709 167.206 26.8793C166.794 27.0876 166.276 27.1918 165.651 27.1918ZM166.368 25.0824C166.912 25.0824 167.376 24.9356 167.76 24.642C168.143 24.3437 168.435 23.9295 168.634 23.3991C168.832 22.8688 168.932 22.2509 168.932 21.5455C168.932 20.84 168.832 20.2268 168.634 19.706C168.439 19.1851 168.151 18.7803 167.767 18.4915C167.388 18.2027 166.922 18.0582 166.368 18.0582C165.795 18.0582 165.317 18.2074 164.933 18.5057C164.55 18.804 164.261 19.2159 164.067 19.7415C163.873 20.267 163.776 20.8684 163.776 21.5455C163.776 22.2273 163.873 22.8357 164.067 23.3707C164.266 23.901 164.557 24.3201 164.94 24.6278C165.329 24.9309 165.804 25.0824 166.368 25.0824ZM174.2 27V16.0909H176.771V27H174.2ZM175.493 14.5426C175.085 14.5426 174.735 14.4077 174.441 14.1378C174.148 13.8632 174.001 13.5341 174.001 13.1506C174.001 12.7623 174.148 12.4332 174.441 12.1634C174.735 11.8887 175.085 11.7514 175.493 11.7514C175.904 11.7514 176.255 11.8887 176.544 12.1634C176.837 12.4332 176.984 12.7623 176.984 13.1506C176.984 13.5341 176.837 13.8632 176.544 14.1378C176.255 14.4077 175.904 14.5426 175.493 14.5426ZM184.862 16.0909V18.0795H178.591V16.0909H184.862ZM180.139 13.4773H182.71V23.7188C182.71 24.0644 182.762 24.3295 182.866 24.5142C182.975 24.6941 183.117 24.8172 183.293 24.8835C183.468 24.9498 183.662 24.983 183.875 24.983C184.036 24.983 184.183 24.9711 184.315 24.9474C184.453 24.9238 184.557 24.9025 184.628 24.8835L185.061 26.8935C184.924 26.9408 184.727 26.9929 184.472 27.0497C184.221 27.1065 183.913 27.1397 183.548 27.1491C182.904 27.1681 182.324 27.071 181.808 26.858C181.292 26.6402 180.883 26.304 180.58 25.8494C180.281 25.3949 180.134 24.8267 180.139 24.1449V13.4773ZM196.022 27.1918C195.165 27.1918 194.398 26.9716 193.721 26.5312C193.043 26.0909 192.508 25.4517 192.115 24.6136C191.722 23.7756 191.526 22.7576 191.526 21.5597C191.526 20.3475 191.725 19.3248 192.123 18.4915C192.525 17.6534 193.067 17.0213 193.749 16.5952C194.431 16.1643 195.191 15.9489 196.029 15.9489C196.668 15.9489 197.194 16.0578 197.605 16.2756C198.017 16.4886 198.344 16.7467 198.586 17.0497C198.827 17.348 199.014 17.6297 199.147 17.8949H199.253V12.4545H201.831V27H199.303V25.2812H199.147C199.014 25.5464 198.822 25.8281 198.571 26.1264C198.32 26.42 197.989 26.6709 197.577 26.8793C197.165 27.0876 196.647 27.1918 196.022 27.1918ZM196.739 25.0824C197.283 25.0824 197.748 24.9356 198.131 24.642C198.515 24.3437 198.806 23.9295 199.005 23.3991C199.203 22.8688 199.303 22.2509 199.303 21.5455C199.303 20.84 199.203 20.2268 199.005 19.706C198.81 19.1851 198.522 18.7803 198.138 18.4915C197.759 18.2027 197.293 18.0582 196.739 18.0582C196.166 18.0582 195.688 18.2074 195.304 18.5057C194.921 18.804 194.632 19.2159 194.438 19.7415C194.244 20.267 194.147 20.8684 194.147 21.5455C194.147 22.2273 194.244 22.8357 194.438 23.3707C194.637 23.901 194.928 24.3201 195.311 24.6278C195.7 24.9309 196.176 25.0824 196.739 25.0824ZM207.71 27.2202C207.019 27.2202 206.396 27.0971 205.842 26.8509C205.293 26.5999 204.857 26.2306 204.536 25.7429C204.218 25.2552 204.06 24.6539 204.06 23.9389C204.06 23.3234 204.173 22.8144 204.401 22.4119C204.628 22.0095 204.938 21.6875 205.331 21.446C205.724 21.2045 206.167 21.0223 206.659 20.8991C207.156 20.7713 207.67 20.679 208.2 20.6222C208.839 20.5559 209.358 20.4967 209.756 20.4446C210.153 20.3878 210.442 20.3026 210.622 20.1889C210.807 20.0705 210.899 19.8883 210.899 19.642V19.5994C210.899 19.0644 210.741 18.6501 210.423 18.3565C210.106 18.063 209.649 17.9162 209.053 17.9162C208.423 17.9162 207.923 18.0535 207.554 18.3281C207.189 18.6027 206.943 18.9271 206.815 19.3011L204.415 18.9602C204.604 18.2973 204.917 17.7434 205.352 17.2983C205.788 16.8485 206.321 16.5123 206.95 16.2898C207.58 16.0625 208.276 15.9489 209.038 15.9489C209.564 15.9489 210.087 16.0104 210.608 16.1335C211.129 16.2566 211.605 16.4602 212.036 16.7443C212.466 17.0237 212.812 17.4048 213.072 17.8878C213.338 18.3707 213.47 18.9744 213.47 19.6989V27H210.999V25.5014H210.913C210.757 25.8045 210.537 26.0885 210.253 26.3537C209.973 26.6141 209.621 26.8248 209.195 26.9858C208.773 27.142 208.278 27.2202 207.71 27.2202ZM208.378 25.331C208.894 25.331 209.341 25.2292 209.72 25.0256C210.099 24.8172 210.39 24.5426 210.594 24.2017C210.802 23.8608 210.906 23.4891 210.906 23.0866V21.8011C210.826 21.8674 210.688 21.929 210.494 21.9858C210.305 22.0426 210.092 22.0923 209.855 22.1349C209.618 22.1776 209.384 22.2154 209.152 22.2486C208.92 22.2817 208.719 22.3101 208.548 22.3338C208.165 22.3859 207.821 22.4711 207.518 22.5895C207.215 22.7079 206.976 22.8736 206.801 23.0866C206.626 23.295 206.538 23.5649 206.538 23.8963C206.538 24.3698 206.711 24.7273 207.057 24.9688C207.402 25.2102 207.843 25.331 208.378 25.331ZM217.263 31.0909C216.912 31.0909 216.588 31.0625 216.29 31.0057C215.996 30.9536 215.762 30.892 215.587 30.821L216.183 28.8182C216.557 28.9271 216.891 28.9792 217.185 28.9744C217.478 28.9697 217.736 28.8774 217.959 28.6974C218.186 28.5223 218.378 28.2287 218.534 27.8168L218.754 27.2273L214.798 16.0909H217.526L220.04 24.3295H220.153L222.675 16.0909H225.409L221.041 28.321C220.838 28.8987 220.568 29.3935 220.232 29.8054C219.895 30.2221 219.483 30.5393 218.996 30.7571C218.513 30.9796 217.935 31.0909 217.263 31.0909Z" fill="white"/>
</g>
<defs>
<clipPath id="clip0_1162_1049">
<rect width="375" height="281" fill="white"/>
</clipPath>
</defs>
</svg>
