<svg width="66" height="76" viewBox="0 0 66 76" fill="none" xmlns="http://www.w3.org/2000/svg">
<g clip-path="url(#clip0_324_2)">
<path d="M58.3369 14.6825L32.992 29.3489L14.0197 25.7429L32.992 36.7225L64.7255 18.3693L58.3369 14.6825Z" fill="white"/>
<path d="M0 28.2977L25.3448 42.964L31.7173 61.2525V39.2772L0 20.924V28.2977Z" fill="white"/>
<path d="M40.639 42.9642L53.255 28.2978L34.2665 39.2774V75.9998L40.639 72.313V42.9642Z" fill="white"/>
<path d="M6.37251 39.3584L0 35.6716V57.6307L31.7173 76V68.6264L6.37251 53.9439V39.3584Z" fill="#7EDFAB"/>
<path d="M32.9918 7.38977L45.5917 14.6825L51.9803 10.9957L32.9918 0L1.2745 18.3693L7.63088 22.0561L32.9918 7.38977Z" fill="#7EDFAB"/>
<path d="M59.6114 24.6108V53.9436L47.0115 61.2525V68.6261L66 57.6304V20.924L59.6114 24.6108Z" fill="#7EDFAB"/>
</g>
<defs>
<clipPath id="clip0_324_2">
<rect width="66" height="76" fill="white"/>
</clipPath>
</defs>
</svg>
