<svg width="85" height="29" viewBox="0 0 85 29" fill="none" xmlns="http://www.w3.org/2000/svg">
<g clip-path="url(#clip0_706_23)">
<path fill-rule="evenodd" clip-rule="evenodd" d="M5.93666 11.8974C7.11376 11.8998 8.26508 11.5529 9.24493 10.9007C10.2248 10.2485 10.9891 9.32033 11.4411 8.23354C11.8933 7.14676 12.0128 5.95027 11.7846 4.79557C11.5565 3.64087 10.9909 2.57974 10.1594 1.74656C9.3279 0.913499 8.26797 0.34572 7.11375 0.115237C5.95941 -0.115366 4.76281 0.00180229 3.67507 0.451689C2.58744 0.901575 1.65757 1.66395 1.00345 2.64248C0.349217 3.62101 0 4.77161 0 5.94871C0 7.52427 0.625097 9.03554 1.73813 10.1509C2.85116 11.2661 4.3611 11.8942 5.93666 11.8974ZM26.3475 10.9007C25.3676 11.5529 24.5385 11.7305 23.0392 11.8974C16.359 12.641 12.641 16.359 11.8974 23.0513C11.7322 24.5385 11.5482 25.379 10.894 26.3575C10.2399 27.336 9.30999 28.0984 8.22237 28.5483C7.13462 28.9982 5.93802 29.1154 4.78369 28.8848C3.62947 28.6543 2.56953 28.0865 1.73804 27.2534C0.906548 26.4203 0.340947 25.3591 0.112874 24.2044C-0.11532 23.0497 0.00412941 21.8532 0.456303 20.7665C0.908356 19.6797 1.67265 18.7515 2.6525 18.0993C3.63235 17.4471 4.46154 17.2695 5.96077 17.1026C12.641 16.359 16.359 12.641 17.1026 5.94871C17.2678 4.46154 17.4518 3.62101 18.106 2.64248C18.7601 1.66395 19.69 0.901575 20.7776 0.451689C21.8654 0.00180229 23.062 -0.115366 24.2163 0.115237C25.3705 0.34572 26.4305 0.913499 27.262 1.74656C28.0935 2.57974 28.6591 3.64087 28.8871 4.79557C29.1153 5.95027 28.9959 7.14676 28.5437 8.23354C28.0916 9.32033 27.3273 10.2485 26.3475 10.9007ZM19.7551 18.0993C20.7349 17.4471 21.8862 17.1002 23.0633 17.1026C24.6389 17.1058 26.1488 17.7339 27.2619 18.8491C28.3749 19.9645 29 21.4757 29 23.0513C29 24.2284 28.6508 25.379 27.9965 26.3575C27.3424 27.336 26.4126 28.0984 25.3249 28.5483C24.2372 28.9982 23.0406 29.1154 21.8862 28.8848C20.732 28.6543 19.6721 28.0865 18.8406 27.2534C18.0091 26.4203 17.4435 25.3591 17.2154 24.2044C16.9872 23.0497 17.1067 21.8532 17.5589 20.7665C18.0109 19.6797 18.7752 18.7515 19.7551 18.0993Z" fill="#7EDFAB"/>
<path d="M41.1178 14.458C41.1178 17.6002 42.484 19.1713 45.2165 19.1713C47.9489 19.1713 49.3151 17.6002 49.3151 14.458C49.3151 11.3718 47.9489 9.82873 45.2165 9.82873C42.484 9.82873 41.1178 11.3718 41.1178 14.458ZM40 14.5C40 10.756 41.7388 8.88398 45.2165 8.88398C48.6941 8.88398 50.4329 10.756 50.4329 14.5C50.4329 18.237 48.6941 20.1055 45.2165 20.1055C41.753 20.1055 40.0142 18.237 40 14.5Z" fill="white"/>
<path d="M54.4251 18.7199C55.5678 18.9228 56.6004 19.0243 57.5231 19.0243C60.4329 19.0243 61.8879 17.4182 61.8879 14.2061C61.8879 11.4278 60.55 10.0387 57.8744 10.0387C56.8524 10.0387 55.7026 10.2276 54.4251 10.6055V18.7199ZM53.3073 5H54.4251V9.51381C55.7665 9.1639 56.9198 8.98895 57.885 8.98895C61.2775 8.98895 62.9737 10.7525 62.9737 14.2796C62.9737 18.1006 61.1888 20.0111 57.6189 20.0111C56.0149 20.0111 54.5777 19.8606 53.3073 19.5597V5Z" fill="white"/>
<path d="M67.1789 5V20.0111H66.061V5H67.1789Z" fill="white"/>
<path d="M72.2463 5V6.25967H70.9155V5H72.2463ZM72.1398 8.98895V20.0111H71.022V8.98895H72.1398Z" fill="white"/>
<path d="M83.8822 10.2276C82.7821 10.0597 81.7353 9.97569 80.7417 9.97569C77.7963 9.97569 76.3236 11.4558 76.3236 14.416C76.3236 17.4462 77.7324 18.9613 80.55 18.9613C81.572 18.9613 82.6828 18.7724 83.8822 18.3945V10.2276ZM85 24H83.8822V19.4862C82.6189 19.8361 81.5046 20.0111 80.5394 20.0111C77.005 20.0111 75.2378 18.153 75.2378 14.437C75.2378 10.805 77.1008 8.98895 80.8268 8.98895C82.3385 8.98895 83.7296 9.13941 85 9.44033V24Z" fill="white"/>
</g>
<defs>
<clipPath id="clip0_706_23">
<rect width="85" height="29" fill="white"/>
</clipPath>
</defs>
</svg>
