<svg width="147" height="34" viewBox="0 0 147 34" fill="none" xmlns="http://www.w3.org/2000/svg">
<g clip-path="url(#clip0_328_8)">
<path d="M26.2211 6.5669L14.8292 13.1266L6.30154 11.5138L14.8292 16.4245L29.0927 8.21586L26.2211 6.5669Z" fill="white"/>
<path d="M0 12.6564L11.3919 19.2161L14.2562 27.3958V17.5671L0 9.35849V12.6564Z" fill="white"/>
<path d="M18.2663 19.2161L23.9369 12.6565L15.402 17.5672V33.9917L18.2663 32.3427V19.2161Z" fill="white"/>
<path d="M2.8643 17.6034L0 15.9545V25.7759L14.2562 33.9917V30.6938L2.8643 24.1269V17.6034Z" fill="#7EDFAB"/>
<path d="M14.8291 3.30515L20.4924 6.5669L23.364 4.91794L14.8291 0L0.572861 8.21586L3.42991 9.86482L14.8291 3.30515Z" fill="#7EDFAB"/>
<path d="M26.794 11.0074V24.1268L21.1306 27.3958V30.6937L29.6655 25.7757V9.35849L26.794 11.0074Z" fill="#7EDFAB"/>
<path d="M46.317 8.66971C48.4745 6.53429 51.3513 5.46658 54.9473 5.46658C58.5433 5.46658 61.4201 6.53429 63.5777 8.66971C65.6799 10.7791 66.7726 13.5395 66.8555 16.951C66.7726 20.3364 65.6799 23.0968 63.5777 25.2322C61.4201 27.3676 58.5433 28.4353 54.9473 28.4353C51.3513 28.4353 48.4745 27.3676 46.317 25.2322C44.1594 23.0968 43.0529 20.3364 42.9976 16.951C43.0529 13.5655 44.1594 10.8051 46.317 8.66971ZM54.9473 25.701C57.7134 25.701 59.8849 24.8676 61.4616 23.201C63.0106 21.5864 63.7851 19.503 63.7851 16.951C63.7851 14.3989 63.0106 12.3155 61.4616 10.701C59.8572 9.00825 57.6858 8.17492 54.9473 8.20096C52.1812 8.20096 49.9959 9.03429 48.3916 10.701C46.8425 12.3155 46.0818 14.3989 46.1095 16.951C46.1095 19.503 46.8702 21.5864 48.3916 23.201C49.9959 24.8676 52.1812 25.701 54.9473 25.701Z" fill="white"/>
<path d="M89.1368 11.5994C89.1368 13.9171 88.0303 15.5447 85.8174 16.4822C87.975 17.1593 89.3996 18.2921 90.0911 19.8806C90.3401 20.4796 90.4645 21.1958 90.4645 22.0291C90.4645 22.8364 90.2986 23.6306 89.9666 24.4119C89.6624 25.1671 89.1644 25.8312 88.4729 26.4041C87.0069 27.5499 84.7525 28.1228 81.7097 28.1228H71.9591V5.77908H81.5437C84.0333 5.77908 85.9142 6.32596 87.1867 7.41971C88.4867 8.48742 89.1368 9.88065 89.1368 11.5994ZM86.1908 11.7947C86.1908 10.8051 85.7621 10.0109 84.9046 9.4119C84.0748 8.81294 82.8715 8.51346 81.2948 8.51346H75.071V15.4275H80.7139C83.646 15.4275 85.3887 14.6984 85.9419 13.24C86.1079 12.7973 86.1908 12.3155 86.1908 11.7947ZM81.4193 25.3885C84.628 25.3885 86.5504 24.6593 87.1867 23.201C87.3803 22.7322 87.4771 22.2374 87.4771 21.7166C87.4771 20.4405 86.9654 19.5161 85.9419 18.9431C84.9184 18.3442 83.4247 18.0447 81.4608 18.0447H75.071V25.3885H81.4193Z" fill="white"/>
<path d="M111.252 25.2322V28.1228H95.4851V5.77908H98.597V25.2322H111.252Z" fill="white"/>
<path d="M115.028 5.77908H118.14V28.1228H115.028V5.77908Z" fill="white"/>
<path d="M137.226 28.3181C136.59 28.3963 135.912 28.4353 135.193 28.4353C131.597 28.4353 128.72 27.3676 126.563 25.2322C124.405 23.0968 123.299 20.3364 123.243 16.951C123.299 13.5655 124.405 10.8051 126.563 8.66971C128.72 6.53429 131.597 5.46658 135.193 5.46658C138.789 5.46658 141.666 6.53429 143.823 8.66971C145.926 10.7791 147.018 13.5395 147.101 16.951C147.046 19.477 146.41 21.6775 145.193 23.5525C143.975 25.4015 142.26 26.7426 140.048 27.576L143.035 30.9128L140.919 32.4588L137.226 28.3181ZM135.193 25.701C137.959 25.701 140.131 24.8676 141.707 23.201C143.256 21.5864 144.031 19.503 144.031 16.951C144.031 14.3989 143.256 12.3155 141.707 10.701C140.103 9.00825 137.931 8.17492 135.193 8.20096C132.427 8.20096 130.242 9.03429 128.637 10.701C127.088 12.3155 126.328 14.3989 126.355 16.951C126.355 19.503 127.116 21.5864 128.637 23.201C130.242 24.8676 132.427 25.701 135.193 25.701Z" fill="white"/>
</g>
<defs>
<clipPath id="clip0_328_8">
<rect width="146.77" height="33.99" fill="white"/>
</clipPath>
</defs>
</svg>
