<svg width="85" height="29" viewBox="0 0 85 29" fill="none" xmlns="http://www.w3.org/2000/svg">
<g clip-path="url(#clip0_706_23)">
<mask id="path-1-inside-1_706_23" fill="white">
<path fill-rule="evenodd" clip-rule="evenodd" d="M5.93666 11.8974C7.11376 11.8998 8.26508 11.5529 9.24493 10.9007C10.2248 10.2485 10.9891 9.32033 11.4411 8.23354C11.8933 7.14676 12.0128 5.95027 11.7846 4.79557C11.5565 3.64087 10.9909 2.57974 10.1594 1.74656C9.3279 0.913499 8.26797 0.34572 7.11375 0.115237C5.95941 -0.115366 4.76281 0.00180229 3.67507 0.451689C2.58744 0.901575 1.65757 1.66395 1.00345 2.64248C0.349217 3.62101 0 4.77161 0 5.94871C0 7.52427 0.625097 9.03554 1.73813 10.1509C2.85116 11.2661 4.3611 11.8942 5.93666 11.8974ZM26.3475 10.9007C25.3676 11.5529 24.5385 11.7305 23.0392 11.8974C16.359 12.641 12.641 16.359 11.8974 23.0513C11.7322 24.5385 11.5482 25.379 10.894 26.3575C10.2399 27.336 9.30999 28.0984 8.22237 28.5483C7.13462 28.9982 5.93802 29.1154 4.78369 28.8848C3.62947 28.6543 2.56953 28.0865 1.73804 27.2534C0.906548 26.4203 0.340947 25.3591 0.112874 24.2044C-0.11532 23.0497 0.00412941 21.8532 0.456303 20.7665C0.908356 19.6797 1.67265 18.7515 2.6525 18.0993C3.63235 17.4471 4.46154 17.2695 5.96077 17.1026C12.641 16.359 16.359 12.641 17.1026 5.94871C17.2678 4.46154 17.4518 3.62101 18.106 2.64248C18.7601 1.66395 19.69 0.901575 20.7776 0.451689C21.8654 0.00180229 23.062 -0.115366 24.2163 0.115237C25.3705 0.34572 26.4305 0.913499 27.262 1.74656C28.0935 2.57974 28.6591 3.64087 28.8871 4.79557C29.1153 5.95027 28.9959 7.14676 28.5437 8.23354C28.0916 9.32033 27.3273 10.2485 26.3475 10.9007ZM19.7551 18.0993C20.7349 17.4471 21.8862 17.1002 23.0633 17.1026C24.6389 17.1058 26.1488 17.7339 27.2619 18.8491C28.3749 19.9645 29 21.4757 29 23.0513C29 24.2284 28.6508 25.379 27.9965 26.3575C27.3424 27.336 26.4126 28.0984 25.3249 28.5483C24.2372 28.9982 23.0406 29.1154 21.8862 28.8848C20.732 28.6543 19.6721 28.0865 18.8406 27.2534C18.0091 26.4203 17.4435 25.3591 17.2154 24.2044C16.9872 23.0497 17.1067 21.8532 17.5589 20.7665C18.0109 19.6797 18.7752 18.7515 19.7551 18.0993Z"/>
</mask>
<path d="M5.93666 11.8974L5.9346 12.8974L5.93462 12.8974L5.93666 11.8974ZM11.4411 8.23354L10.5179 7.8494L10.5178 7.84949L11.4411 8.23354ZM11.7846 4.79557L10.8035 4.98935L10.8035 4.98945L11.7846 4.79557ZM10.1594 1.74656L10.8672 1.04017L10.8672 1.04012L10.1594 1.74656ZM7.11375 0.115237L6.91785 1.09586L6.91793 1.09588L7.11375 0.115237ZM3.67507 0.451689L3.29287 -0.472393L3.29284 -0.472378L3.67507 0.451689ZM1.00345 2.64248L1.83476 3.19829L1.83481 3.19822L1.00345 2.64248ZM1.73813 10.1509L1.0303 10.8572L1.03033 10.8573L1.73813 10.1509ZM23.0392 11.8974L23.1499 12.8913L23.1499 12.8913L23.0392 11.8974ZM26.3475 10.9007L26.9016 11.7332L26.9016 11.7332L26.3475 10.9007ZM11.8974 23.0513L10.9036 22.9409L10.9036 22.9409L11.8974 23.0513ZM10.894 26.3575L10.0627 25.8017L10.0626 25.8018L10.894 26.3575ZM8.22237 28.5483L8.60456 29.4724L8.6046 29.4724L8.22237 28.5483ZM4.78369 28.8848L4.97959 27.9041L4.97951 27.9041L4.78369 28.8848ZM1.73804 27.2534L1.03022 27.9598L1.03027 27.9599L1.73804 27.2534ZM0.112874 24.2044L1.09392 24.0107L1.0939 24.0106L0.112874 24.2044ZM0.456303 20.7665L1.37958 21.1506L1.37961 21.1505L0.456303 20.7665ZM2.6525 18.0993L3.20659 18.9317L3.20659 18.9317L2.6525 18.0993ZM5.96077 17.1026L6.0714 18.0964L6.0714 18.0964L5.96077 17.1026ZM17.1026 5.94871L18.0964 6.05914L18.0964 6.05914L17.1026 5.94871ZM18.106 2.64248L18.9373 3.19829L18.9374 3.19822L18.106 2.64248ZM20.7776 0.451689L20.3954 -0.472393L20.3954 -0.472377L20.7776 0.451689ZM24.2163 0.115237L24.0204 1.09586L24.0205 1.09588L24.2163 0.115237ZM27.262 1.74656L27.9698 1.04017L27.9697 1.04012L27.262 1.74656ZM28.8871 4.79557L27.9061 4.98935L27.9061 4.98945L28.8871 4.79557ZM28.5437 8.23354L27.6204 7.8494L27.6204 7.84949L28.5437 8.23354ZM23.0633 17.1026L23.0654 16.1026L23.0654 16.1026L23.0633 17.1026ZM19.7551 18.0993L20.3092 18.9317L20.3092 18.9317L19.7551 18.0993ZM27.2619 18.8491L27.9697 18.1428L27.9697 18.1427L27.2619 18.8491ZM27.9965 26.3575L27.1652 25.8017L27.1652 25.8018L27.9965 26.3575ZM25.3249 28.5483L25.7071 29.4724L25.7072 29.4724L25.3249 28.5483ZM21.8862 28.8848L22.0822 27.9041L22.0821 27.9041L21.8862 28.8848ZM18.8406 27.2534L18.1328 27.9598L18.1328 27.9599L18.8406 27.2534ZM17.2154 24.2044L18.1965 24.0107L18.1965 24.0106L17.2154 24.2044ZM17.5589 20.7665L18.4821 21.1506L18.4822 21.1505L17.5589 20.7665ZM8.69085 10.0683C7.87568 10.6108 6.91789 10.8994 5.93871 10.8974L5.93462 12.8974C7.30963 12.9002 8.65449 12.495 9.79902 11.7332L8.69085 10.0683ZM10.5178 7.84949C10.1418 8.75356 9.50597 9.5257 8.69085 10.0683L9.79902 11.7332C10.9436 10.9713 11.8364 9.88709 12.3644 8.6176L10.5178 7.84949ZM10.8035 4.98945C10.9934 5.95006 10.894 6.94538 10.5179 7.8494L12.3644 8.61769C12.8926 7.34814 13.0321 5.95049 12.7656 4.6017L10.8035 4.98945ZM9.45157 2.45295C10.1433 3.14607 10.6138 4.02881 10.8035 4.98935L12.7656 4.6018C12.4992 3.25294 11.8385 2.01341 10.8672 1.04017L9.45157 2.45295ZM6.91793 1.09588C7.87808 1.28761 8.75987 1.75994 9.45162 2.453L10.8672 1.04012C9.89594 0.067059 8.65785 -0.596168 7.30957 -0.865402L6.91793 1.09588ZM4.05726 1.37577C4.96222 1.00149 5.95764 0.904038 6.91785 1.09586L7.30965 -0.865386C5.96119 -1.13477 4.56341 -0.997881 3.29287 -0.472393L4.05726 1.37577ZM1.83481 3.19822C2.37891 2.38428 3.15244 1.75004 4.0573 1.37576L3.29284 -0.472378C2.02245 0.0531077 0.936235 0.943625 0.172096 2.08674L1.83481 3.19822ZM1 5.94871C1 4.96949 1.29051 4.01232 1.83476 3.19829L0.172144 2.08667C-0.592074 3.22969 -1 4.57373 -1 5.94871H1ZM2.44596 9.44448C1.52001 8.51662 1 7.25939 1 5.94871H-1C-1 7.78915 -0.269814 9.55445 1.0303 10.8572L2.44596 9.44448ZM5.93873 10.8974C4.628 10.8947 3.37187 10.3722 2.44593 9.44444L1.03033 10.8573C2.33046 12.1599 4.0942 12.8936 5.9346 12.8974L5.93873 10.8974ZM23.1499 12.8913C24.6941 12.7194 25.7185 12.5206 26.9016 11.7332L25.7934 10.0683C25.0168 10.5852 24.3828 10.7417 22.9286 10.9036L23.1499 12.8913ZM12.8913 23.1617C13.2452 19.977 14.2928 17.6085 15.9495 15.9504C17.6061 14.2924 19.9715 13.2451 23.1499 12.8913L22.9286 10.9036C19.4267 11.2934 16.593 12.4768 14.5347 14.5368C12.4765 16.5967 11.2933 19.4333 10.9036 22.9409L12.8913 23.1617ZM11.7253 26.9133C12.5149 25.7323 12.7207 24.6972 12.8913 23.1617L10.9036 22.9409C10.7437 24.3797 10.5815 25.0257 10.0627 25.8017L11.7253 26.9133ZM8.6046 29.4724C9.87499 28.9469 10.9612 28.0564 11.7253 26.9133L10.0626 25.8018C9.51853 26.6157 8.745 27.25 7.84014 27.6242L8.6046 29.4724ZM4.58778 29.8654C5.93624 30.1348 7.33403 29.9979 8.60456 29.4724L7.84017 27.6242C6.93522 27.9985 5.9398 28.096 4.97959 27.9041L4.58778 29.8654ZM1.03027 27.9599C2.0015 28.9329 3.23959 29.5962 4.58787 29.8654L4.97951 27.9041C4.01935 27.7124 3.13757 27.2401 2.44581 26.547L1.03027 27.9599ZM-0.868173 24.3982C-0.601749 25.7471 0.0589477 26.9866 1.03022 27.9598L2.44586 26.547C1.75415 25.8539 1.28364 24.9712 1.09392 24.0107L-0.868173 24.3982ZM-0.466971 20.3823C-0.995185 21.6519 -1.1347 23.0495 -0.868153 24.3983L1.0939 24.0106C0.904063 23.0499 1.00344 22.0546 1.37958 21.1506L-0.466971 20.3823ZM2.09842 17.2668C0.953841 18.0287 0.0610452 19.1129 -0.467007 20.3824L1.37961 21.1505C1.75567 20.2464 2.39147 19.4743 3.20659 18.9317L2.09842 17.2668ZM5.85014 16.1087C4.30586 16.2806 3.28147 16.4794 2.09842 17.2668L3.20659 18.9317C3.98323 18.4148 4.61722 18.2583 6.0714 18.0964L5.85014 16.1087ZM16.1087 5.83828C15.7548 9.02305 14.7072 11.3915 13.0505 13.0496C11.3939 14.7076 9.02854 15.7549 5.85014 16.1087L6.0714 18.0964C9.57326 17.7066 12.407 16.5232 14.4653 14.4632C16.5235 12.4033 17.7067 9.56669 18.0964 6.05914L16.1087 5.83828ZM17.2747 2.08667C16.4851 3.26772 16.2793 4.3028 16.1087 5.83828L18.0964 6.05914C18.2563 4.62027 18.4185 3.97429 18.9373 3.19829L17.2747 2.08667ZM20.3954 -0.472377C19.125 0.0531076 18.0388 0.943625 17.2747 2.08674L18.9374 3.19822C19.4815 2.38428 20.255 1.75004 21.1599 1.37576L20.3954 -0.472377ZM24.4122 -0.865386C23.0638 -1.13477 21.666 -0.99788 20.3954 -0.472393L21.1598 1.37577C22.0648 1.00149 23.0602 0.904038 24.0204 1.09586L24.4122 -0.865386ZM27.9697 1.04012C26.9985 0.067059 25.7604 -0.596168 24.4121 -0.865402L24.0205 1.09588C24.9806 1.28761 25.8624 1.75994 26.5542 2.453L27.9697 1.04012ZM29.8682 4.6018C29.6017 3.25294 28.9411 2.01341 27.9698 1.04017L26.5541 2.45295C27.2459 3.14607 27.7164 4.02881 27.9061 4.98935L29.8682 4.6018ZM29.467 8.61769C29.9952 7.34814 30.1347 5.95049 29.8682 4.6017L27.9061 4.98945C28.0959 5.95006 27.9966 6.94538 27.6204 7.8494L29.467 8.61769ZM26.9016 11.7332C28.0462 10.9713 28.939 9.88709 29.467 8.6176L27.6204 7.84949C27.2443 8.75356 26.6085 9.5257 25.7934 10.0683L26.9016 11.7332ZM23.0654 16.1026C21.6904 16.0998 20.3455 16.505 19.201 17.2668L20.3092 18.9317C21.1243 18.3892 22.0821 18.1006 23.0613 18.1026L23.0654 16.1026ZM27.9697 18.1427C26.6695 16.8401 24.9058 16.1064 23.0654 16.1026L23.0613 18.1026C24.372 18.1053 25.6281 18.6278 26.5541 19.5556L27.9697 18.1427ZM30 23.0513C30 21.2108 29.2698 19.4455 27.9697 18.1428L26.554 19.5555C27.48 20.4834 28 21.7406 28 23.0513H30ZM28.8279 26.9133C29.5921 25.7703 30 24.4263 30 23.0513H28C28 24.0305 27.7095 24.9877 27.1652 25.8017L28.8279 26.9133ZM25.7072 29.4724C26.9776 28.9469 28.0638 28.0564 28.8279 26.9133L27.1652 25.8018C26.6211 26.6157 25.8476 27.25 24.9427 27.6242L25.7072 29.4724ZM21.6903 29.8654C23.0388 30.1348 24.4366 29.9979 25.7071 29.4724L24.9427 27.6242C24.0378 27.9985 23.0424 28.096 22.0822 27.9041L21.6903 29.8654ZM18.1328 27.9599C19.1041 28.9329 20.3421 29.5962 21.6904 29.8654L22.0821 27.9041C21.1219 27.7124 20.2401 27.2401 19.5484 26.547L18.1328 27.9599ZM16.2344 24.3982C16.5008 25.7471 17.1615 26.9866 18.1328 27.9598L19.5484 26.547C18.8567 25.8539 18.3862 24.9712 18.1965 24.0107L16.2344 24.3982ZM16.6356 20.3823C16.1074 21.6519 15.9679 23.0495 16.2344 24.3983L18.1965 24.0106C18.0066 23.0499 18.106 22.0546 18.4821 21.1506L16.6356 20.3823ZM19.201 17.2668C18.0564 18.0287 17.1636 19.1129 16.6356 20.3824L18.4822 21.1505C18.8582 20.2464 19.494 19.4743 20.3092 18.9317L19.201 17.2668Z" fill="#7EDFAB" mask="url(#path-1-inside-1_706_23)"/>
<path d="M41.1178 14.458C41.1178 17.6002 42.484 19.1713 45.2165 19.1713C47.9489 19.1713 49.3151 17.6002 49.3151 14.458C49.3151 11.3718 47.9489 9.82873 45.2165 9.82873C42.484 9.82873 41.1178 11.3718 41.1178 14.458ZM40 14.5C40 10.756 41.7388 8.88398 45.2165 8.88398C48.6941 8.88398 50.4329 10.756 50.4329 14.5C50.4329 18.237 48.6941 20.1055 45.2165 20.1055C41.753 20.1055 40.0142 18.237 40 14.5Z" fill="white"/>
<path d="M54.4251 18.7199C55.5678 18.9228 56.6004 19.0243 57.5231 19.0243C60.4329 19.0243 61.8879 17.4182 61.8879 14.2061C61.8879 11.4278 60.55 10.0387 57.8744 10.0387C56.8524 10.0387 55.7026 10.2276 54.4251 10.6055V18.7199ZM53.3073 5H54.4251V9.51381C55.7665 9.1639 56.9198 8.98895 57.885 8.98895C61.2775 8.98895 62.9737 10.7525 62.9737 14.2796C62.9737 18.1006 61.1888 20.0111 57.6189 20.0111C56.0149 20.0111 54.5777 19.8606 53.3073 19.5597V5Z" fill="white"/>
<path d="M67.1789 5V20.0111H66.061V5H67.1789Z" fill="white"/>
<path d="M72.2463 5V6.25967H70.9155V5H72.2463ZM72.1398 8.98895V20.0111H71.022V8.98895H72.1398Z" fill="white"/>
<path d="M83.8822 10.2276C82.7821 10.0597 81.7353 9.97569 80.7417 9.97569C77.7963 9.97569 76.3236 11.4558 76.3236 14.416C76.3236 17.4462 77.7324 18.9613 80.55 18.9613C81.572 18.9613 82.6828 18.7724 83.8822 18.3945V10.2276ZM85 24H83.8822V19.4862C82.6189 19.8361 81.5046 20.0111 80.5394 20.0111C77.005 20.0111 75.2378 18.153 75.2378 14.437C75.2378 10.805 77.1008 8.98895 80.8268 8.98895C82.3385 8.98895 83.7296 9.13941 85 9.44033V24Z" fill="white"/>
</g>
<defs>
<clipPath id="clip0_706_23">
<rect width="85" height="29" fill="white"/>
</clipPath>
</defs>
</svg>
