<svg width="76" height="76" viewBox="0 0 76 76" fill="none" xmlns="http://www.w3.org/2000/svg">
<g clip-path="url(#clip0_402_5)">
<circle cx="38" cy="38" r="38" fill="#1C1C1C"/>
<path d="M63.3369 14.6825L37.992 29.3489L19.0197 25.7429L37.992 36.7225L69.7255 18.3693L63.3369 14.6825Z" fill="white"/>
<path d="M5 28.2977L30.3448 42.964L36.7173 61.2525V39.2772L5 20.924V28.2977Z" fill="white"/>
<path d="M45.639 42.9642L58.255 28.2978L39.2665 39.2774V75.9998L45.639 72.313V42.9642Z" fill="white"/>
<path d="M11.3725 39.3584L5 35.6716V57.6307L36.7173 76V68.6264L11.3725 53.9439V39.3584Z" fill="#7EDFAB"/>
<path d="M37.9918 7.38977L50.5917 14.6825L56.9803 10.9957L37.9918 0L6.2745 18.3693L12.6309 22.0561L37.9918 7.38977Z" fill="#7EDFAB"/>
<path d="M64.6114 24.6108V53.9436L52.0115 61.2525V68.6261L71 57.6304V20.924L64.6114 24.6108Z" fill="#7EDFAB"/>
</g>
<defs>
<clipPath id="clip0_402_5">
<rect width="76" height="76" fill="white"/>
</clipPath>
</defs>
</svg>
