<svg width="70" height="70" viewBox="0 0 70 70" fill="none" xmlns="http://www.w3.org/2000/svg">
<path d="M5.17969 17.5949L35 0.298538L64.8203 17.6103V19.731V52.3274L34.9799 69.7015L5.17969 52.5193V17.5949Z" fill="white"/>
<path d="M57.8955 13.5809L34.9928 26.8486L17.8485 23.5865L34.9928 33.519L63.6686 16.9161L57.8955 13.5809Z" fill="#1E1E1E"/>
<path d="M5.17969 25.8976L28.0824 39.1654L33.8409 55.7098V35.8301L5.17969 19.2272V25.8976Z" fill="#1E1E1E"/>
<path d="M41.903 39.1655L53.3033 25.8978L36.1445 35.8303V69.0508L41.903 65.7156V39.1655Z" fill="#1E1E1E"/>
<path d="M10.9382 35.9036L5.17969 32.5684V52.4334L33.8409 69.0509V62.3805L10.9382 49.0982V35.9036Z" fill="#7EDFAB"/>
<path d="M34.9926 6.9836L46.3784 13.5809L52.1515 10.2457L34.9926 0.298538L6.33139 16.9161L12.0753 20.2513L34.9926 6.9836Z" fill="#7EDFAB"/>
<path d="M59.0472 22.5624V49.0979L47.6615 55.7098V62.3802L64.8203 52.4331V19.2272L59.0472 22.5624Z" fill="#7EDFAB"/>
</svg>
